<svg width="100%" height="100%" viewBox="0 0 1317 445" version="1.1" xmlns="http://www.w3.org/2000/svg" xml:space="preserve" fill-rule="evenodd" clip-rule="evenodd" stroke-linejoin="round" stroke-miterlimit="2"><g id="Logo_V2"><path d="M243.345 209.85v-33.6h-95.7V.15h-35.4v209.7h131.1zm38.698 0h35.4V.15h-35.4v209.7zm233.099-176.7l.3-33h-139.8v209.7h35.4v-86.4h93v-32.7h-93v-57.6h104.1zm41.697-33v209.7h150.899v-33.3H592.239v-56.1h100.499v-31.5H592.239v-55.5h111.899V.15H556.839z" fill="#046bf2" fill-rule="nonzero"/><path d="M1038.25 139.928c0 7.798-6.118 14.122-13.667 14.122H855.127c-7.546 0-13.665-6.324-13.665-14.122V15.661c0-7.799 6.119-14.122 13.665-14.122h169.456c7.549 0 13.667 6.323 13.667 14.122v124.267z" fill="#f2377c"/><path d="M889.797 153.645a6182.627 6182.627 0 0 1-21.936 20.273c-4.752 4.37-12.36 11.299-17.12 15.659-5.882 5.391-8.086 2.367-8.458 1.727-.648-1.121-.823-3.531-.821-10.601v-67.815c0-4.024 2.758-5.729 6.419-5.729h52.828c1.669 0 6.092-.876 7.485.416 4.174 3.869 6.004 12.576 7.254 17.9.828 3.53-3.146 5.666-5.51 8.029l-20.141 20.141" fill="#f2377c"/><path d="M892.055 61.38c1.596 10.559 13.04 26.72 24.405 37.964 12.656 12.521 30.517 21.023 47.035 23.242 7.572 1.017 11.922.055 16.441-2.883 5.035-3.272 7.94-8.447 8.449-10.612.473-2.013.967-4.48 1.148-7.644 0-.708-.584-1.689-1.468-2.122-10.153-4.97-10.251-5.017-20.719-10.244-.828-.414-1.243-.42-1.715-.396-.554.026-1.3.169-2.429 1.356-4.256 4.472-4.149 4.572-9.721 10.683-.152.166-.41.255-.635.311-.311.028-.945-.173-1.218-.284-15.09-6.19-27.179-15.435-33.779-30.117-.195-.435-.277-.552-.189-1.086.11-.441.36-.603.674-.879 3.877-3.413 3.882-3.447 6.997-6.348.372-.347.661-.908.781-1.632.104-.628-.023-1.278-.262-1.975-1.944-5.674-8.185-22.538-8.93-23.46-.32-.343-.452-1.421-3.973-1.746-5.311-.489-5.581-.218-7.69.559-11.543 4.251-14.519 18.592-13.202 27.313" fill="#fff"/><path d="M114.652 397.147c.902 6.775 2.709 13.008 5.42 18.699 2.71 5.691 6.503 10.344 11.381 13.956 4.878 3.616 11.289 5.421 19.241 5.421 10.298 0 20.909-2.664 31.842-7.995 10.928-5.327 20.909-12.284 29.945-20.867 9.032-8.578 16.484-18.157 22.357-28.726 5.869-10.568 8.807-21.18 8.807-31.842h-5.419c-3.252 8.495-7.77 17.256-13.55 26.287-5.784 9.036-12.466 17.208-20.054 24.525-7.588 7.317-15.9 13.325-24.931 18.022-9.036 4.699-18.522 7.045-28.455 7.045-3.794 0-6.821-.313-9.078-.948-2.261-.631-4.158-1.626-5.691-2.981-1.537-1.355-2.981-3.205-4.336-5.555-1.355-2.346-3.028-5.238-5.014-8.672v-5.962c0-2.888-.046-6.005-.135-9.35a341.03 341.03 0 0 1-.135-9.484v-6.369c0-3.794.27-9.302.813-16.531.541-7.223 1.49-15.129 2.845-23.712 1.355-8.578 3.116-17.344 5.285-26.286 2.167-8.943 4.83-17.073 7.994-24.39 3.159-7.317 6.91-13.278 11.246-17.886 4.336-4.606 9.303-6.91 14.905-6.91 4.695 0 8.172 1.042 10.433 3.117 2.257 2.079 3.883 4.606 4.878 7.588.991 2.98 1.626 6.279 1.897 9.891.271 3.616.72 6.91 1.355 9.891.631 2.981 1.715 5.513 3.252 7.588 1.533 2.079 4.107 3.116 7.723 3.116 0-4.878-.046-10.251-.135-16.124-.093-5.869-.906-11.289-2.439-16.259-1.537-4.967-3.976-9.168-7.317-12.602-3.345-3.429-8.265-5.148-14.769-5.148-8.313 0-15.583 2.349-21.816 7.045-6.233 4.7-11.652 10.798-16.259 18.293-4.607 7.498-8.401 15.988-11.382 25.473a247.08 247.08 0 0 0-7.182 28.725c-1.807 9.668-3.073 18.928-3.793 27.777-.725 8.855-1.085 16.353-1.085 22.493 0 6.326.45 12.873 1.356 19.647m149.589-5.826c-.364 5.242-.406 10.84-.136 16.802.272 5.962 1.127 11.563 2.575 16.801 1.444 5.242 3.883 8.494 7.317 9.756l2.168-2.168 2.168-2.167c.72-1.085 1.579-2.618 2.575-4.608.99-1.986 1.939-3.929 2.845-5.826a283.595 283.595 0 0 1 2.439-5.013c.72-1.444 1.084-2.257 1.084-2.439 0-.903-.182-3.07-.542-6.504-.364-3.43-.813-7.182-1.355-11.247a475.859 475.859 0 0 0-1.626-11.246c-.542-3.43-.906-5.598-1.084-6.504v-4.607c1.626-2.888 5.284-6.368 10.975-10.433 5.691-4.065 12.102-7.902 19.241-11.517a169.846 169.846 0 0 1 21.815-9.214c7.406-2.528 13.638-3.794 18.699-3.794 0 .542.042 1.401.135 2.574.089 1.177.135 2.439.135 3.794s.043 2.668.136 3.93c.089 1.266.136 2.167.136 2.71-.182 1.083-.5 3.793-.949 8.13-.452 4.335-.949 8.989-1.49 13.956a2621.72 2621.72 0 0 0-1.491 13.956c-.453 4.336-.677 7.046-.677 8.13 0 1.084.224 2.621.677 4.607.449 1.99 1.173 4.022 2.168 6.097.991 2.079 2.168 3.887 3.523 5.42 1.355 1.537 2.935 2.304 4.743 2.304.541 0 .991-.089 1.354-.272.36 0 .632-.088.813-.27.72-.36 1.669-1.127 2.846-2.304 1.173-1.173 1.762-1.851 1.762-2.032v-75.608c.359-.542.766-1.398 1.219-2.574a66.96 66.96 0 0 0 1.355-3.93c.449-1.444.855-2.799 1.219-4.065.36-1.262.542-2.168.542-2.71 0-.72-.542-1.668-1.626-2.846-1.083-1.173-1.989-1.761-2.709-1.761-.183-2.168-.454-6.004-.813-11.517-.365-5.509-.771-11.336-1.22-17.48a680.784 680.784 0 0 0-1.49-17.343c-.542-5.42-.906-9.214-1.085-11.382 0-1.084-.228-2.481-.677-4.2a57.592 57.592 0 0 0-1.626-5.149 21.172 21.172 0 0 0-2.575-4.878c-1.083-1.533-2.349-2.663-3.793-3.388-3.074.725-4.607 2.126-4.607 4.201v5.827c0 11.203.766 22.267 2.303 33.196 1.533 10.933 2.304 21.815 2.304 32.655 0 2.35-1.491 4.789-4.472 7.317-2.981 2.532-6.774 5.06-11.382 7.588-4.607 2.532-9.713 5.013-15.311 7.452a971.899 971.899 0 0 1-16.26 6.911c-5.242 2.167-10.026 4.158-14.362 5.962-4.336 1.808-7.499 3.252-9.485 4.335v-4.335c0-2.169-.047-4.425-.135-6.775a167.868 167.868 0 0 1-.136-6.64v-4.471c0-13.55.856-27.1 2.575-40.649a323.612 323.612 0 0 0 2.574-40.65v-5.284c0-1.715-.271-3.252-.813-4.607-.542-1.355-1.448-2.574-2.71-3.659-1.265-1.084-3.163-2.074-5.691-2.98l-4.336 8.943c-.364 7.227-.724 15.899-1.084 26.015a1488.57 1488.57 0 0 1-1.491 31.707 972.894 972.894 0 0 1-2.439 32.79c-.994 10.839-2.303 20.688-3.929 29.538-.724 0-2.215.543-4.471 1.626-2.261 1.084-3.752 1.99-4.472 2.71a2.42 2.42 0 0 0-.271 1.085c-.182.181-.27.453-.27.813v.27c0 .543.088.996.27 1.355 0 .364.09.635.271.813.179.542.678 1.266 1.491 2.168a66.349 66.349 0 0 0 2.574 2.71 66.384 66.384 0 0 0 2.71 2.575c.902.813 1.626 1.312 2.168 1.49-.182 1.448-.453 4.789-.813 10.027m126.013 30.081a44.465 44.465 0 0 0 2.168 6.097c.902 2.079 1.986 3.887 3.252 5.42 1.262 1.537 2.799 2.304 4.607 2.304 2.346 0 4.065-.72 5.149-2.169 1.084-1.443 1.762-3.116 2.032-5.013.271-1.897.36-3.883.271-5.962a120.071 120.071 0 0 1-.135-5.285c0-3.612-.046-7.452-.136-11.517-.093-4.065-1.672-7.63-4.742-10.704-2.532-22.582-4.158-45.528-4.878-68.833a2216.867 2216.867 0 0 1-1.084-68.833h-7.588c-.906 4.7-1.583 8.718-2.033 12.06-.453 3.345-.906 6.774-1.354 10.297-.453 3.524-.771 6.461-.949 8.807v8.943c0 3.075.136 7.724.407 13.957.27 6.232.542 13.325.813 21.273.27 7.951.542 16.26.813 24.931.27 8.673.584 16.938.948 24.797.36 7.858.631 14.905.813 21.137.178 6.233.36 10.798.542 13.685.178 1.085.542 2.622 1.084 4.608m40.379 6.639c.72.995 1.533 1.944 2.439 2.845a23.09 23.09 0 0 0 2.845 2.439c.991.725 1.761 1.178 2.304 1.355 1.626.36 5.373-.135 11.246-1.49 5.868-1.355 12.779-3.159 20.731-5.42 7.948-2.257 16.437-4.832 25.473-7.724a1731.745 1731.745 0 0 0 25.61-8.4c8.037-2.71 14.994-5.192 20.866-7.452 5.869-2.258 9.71-3.93 11.518-5.014-.182-.36-.86-1.127-2.033-2.303a581.788 581.788 0 0 1-2.304-2.304h-4.335c-1.449.364-4.336.995-8.672 1.897-4.336.906-9.396 1.99-15.176 3.252a1874.182 1874.182 0 0 1-18.428 3.929 1994.16 1994.16 0 0 0-18.427 3.93 1556.028 1556.028 0 0 1-15.176 3.252c-4.336.906-7.228 1.448-8.672 1.626-.182 0-1.402.093-3.658.27-2.262.183-4.023.272-5.285.272-.724 0-2.215-.089-4.471-.272-2.261-.177-3.659-.27-4.201-.27-.181-3.252-.406-8.401-.677-15.447a3301.78 3301.78 0 0 1-.813-23.577c-.271-8.672-.589-17.839-.949-27.506-.364-9.663-.677-18.877-.948-27.641-.271-8.761-.542-16.62-.813-23.577-.271-6.953-.406-12.148-.406-15.582 0-4.336.135-8.266.406-11.788.271-3.523.089-6.458-.542-8.808-.635-2.346-2.033-4.154-4.2-5.42-2.168-1.262-5.784-1.897-10.841-1.897 0 3.252.043 8.223.136 14.905.089 6.686.178 14.321.271 22.899.089 8.583.225 17.615.406 27.1.179 9.484.314 18.52.407 27.099.089 8.583.178 16.26.271 23.035.089 6.775.225 11.788.407 15.04 0 1.626.178 4.564.541 8.807.36 4.247.767 8.765 1.22 13.55.449 4.789.902 9.261 1.355 13.415.449 4.158.856 7.045 1.22 8.671.177.543.63 1.313 1.355 2.304M585.1 279.129c.178 12.647.767 25.52 1.761 38.617a5627.763 5627.763 0 0 0 3.117 39.294 2922.679 2922.679 0 0 1 2.981 39.294 566.066 566.066 0 0 1 1.355 38.889c8.85 0 17.885-1.805 27.1-5.421 9.213-3.612 18.11-8.536 26.693-14.769 8.578-6.233 16.62-13.457 24.119-21.68 7.493-8.218 13.997-16.891 19.511-26.015 5.508-9.121 9.891-18.381 13.143-27.777 3.253-9.392 4.878-18.428 4.878-27.1 0-8.49-1.449-16.167-4.336-23.034-2.892-6.864-6.91-12.826-12.059-17.886-5.149-5.056-11.292-9.168-18.428-12.33-7.139-3.159-14.951-5.374-23.441-6.64-4.337-.72-9.938-1.397-16.802-2.033a885.779 885.779 0 0 0-20.189-1.625c-6.597-.449-12.331-.766-17.209-.949-4.877-.177-7.498-.177-7.858 0l-22.222 22.222a5.077 5.077 0 0 0-.27 1.626c-.183.364-.272.813-.272 1.355v1.084c0 2.35.542 4.565 1.626 6.639 1.085 2.079 2.981 3.117 5.691 3.117h1.355c.36 0 .631-.089.813-.271.72-.72 1.626-2.211 2.71-4.472 1.084-2.257 1.626-3.747 1.626-4.471l4.607 4.336zm17.615-13.279c4.154-.542 8.13-1.084 11.923-1.626 3.252-.36 6.64-.813 10.163-1.355 3.522-.542 6.546-.991 9.078-1.355h2.168c6.322 0 13.232 1.266 20.731 3.794a81.036 81.036 0 0 1 21.002 10.704c6.504 4.607 11.923 10.027 16.26 16.26 4.336 6.233 6.504 12.965 6.504 20.189 0 6.144-1.401 13.101-4.2 20.867-2.804 7.77-6.551 15.717-11.247 23.847-4.699 8.13-10.073 16.082-16.124 23.848-6.055 7.77-12.377 14.727-18.969 20.867-6.598 6.144-13.144 11.068-19.648 14.769-6.503 3.705-12.559 5.556-18.157 5.556 0-.36-.093-1.263-.271-2.71-.182-1.445-.27-2.346-.27-2.711a518.84 518.84 0 0 1-1.762-6.368 330.492 330.492 0 0 0-2.71-9.349 420.663 420.663 0 0 1-2.71-9.214c-.813-2.888-1.401-4.878-1.761-5.962V265.85z" fill="#f2377c" fill-rule="nonzero"/><path d="M230.248 375.087c-5.611 10.095-12.721 19.238-21.383 27.468-8.664 8.228-18.188 14.863-28.63 19.954-10.357 5.046-20.158 7.461-29.541 7.463-7.189-.009-12.363-1.609-16.114-4.387-4.187-3.109-7.391-7.021-9.769-11.996-2.458-5.165-4.118-10.851-4.955-17.135l-5.205.693 5.204-.696c-.878-6.56-1.309-12.873-1.309-18.951-.001-5.937.35-13.311 1.067-22.065.704-8.651 1.944-17.733 3.722-27.24a241.61 241.61 0 0 1 7.029-28.116c2.224-7.077 4.909-13.522 8.031-19.368-3.044 7.268-5.611 15.221-7.709 23.874-2.199 9.073-3.989 17.977-5.367 26.704-1.374 8.702-2.221 16.744-2.775 24.139-.547 7.301-.709 12.889-.709 16.924v6.368c0 3.031-.092 6.242.002 9.631.088 3.3-.002 6.371-.002 9.203v5.962c0 .917.262 1.834.721 2.628 1.986 3.434 3.666 6.325 5.02 8.67 1.565 2.707 3.323 5.018 5.414 6.867 2.186 1.936 4.854 3.294 7.754 4.1 2.987.829 6.403 1.133 10.491 1.141 10.762.008 21.146-2.568 30.877-7.638 9.489-4.932 18.222-11.25 26.154-18.9 7.886-7.603 14.833-16.102 20.832-25.473a178.034 178.034 0 0 0 5.571-9.324 71.709 71.709 0 0 1-4.421 9.5m-48.595-121.149c1.785.629 3.09 1.469 4.17 2.57 2.727 2.811 4.733 6.218 6.06 10.487 1.368 4.438 2.118 9.355 2.205 14.791.033 2.142.059 4.215.081 6.222a18.22 18.22 0 0 1-.535-1.972c-.578-2.71-1-5.774-1.256-9.197-.299-3.984-1.005-7.71-2.151-11.155-1.249-3.773-3.402-7.133-6.303-9.793a15.341 15.341 0 0 0-3.251-2.251c.34.092.67.19.98.298m61.992 86.335h-5.419c-2.172 0-4.127 1.48-4.904 3.508-3.102 8.103-7.449 16.622-13.068 25.402-5.569 8.7-11.986 16.579-19.276 23.609-7.244 6.984-15.135 12.701-23.71 17.159-8.341 4.331-16.927 6.456-26.032 6.463-3.501.008-6.14-.311-7.657-.748-1.632-.46-2.76-1.089-3.635-1.859-.987-.865-2.138-2.254-3.281-4.243-1.195-2.067-2.828-4.553-4.328-7.458v-4.552c0-2.945.088-6.107-.002-9.489-.092-3.3.002-6.415.002-9.345v-6.368c0-3.555.141-8.985.679-16.14.529-7.052 1.4-14.82 2.736-23.285a325.18 325.18 0 0 1 5.171-25.869c2.107-8.694 4.669-16.541 7.696-23.543 2.973-6.886 6.423-12.313 10.243-16.37 3.626-3.767 6.958-5.207 11.078-5.259 3.982-.004 6.033.917 6.882 1.735 1.606 1.491 2.704 3.186 3.447 5.382.835 2.511 1.398 5.381 1.641 8.622.285 3.809.762 7.333 1.455 10.592.754 3.571 2.112 6.846 4.168 9.619 1.34 1.837 3.257 3.257 5.336 4.081 2.085.839 4.302 1.158 6.606 1.16 1.383 0 2.735-.56 3.713-1.537a5.288 5.288 0 0 0 1.537-3.713c0-4.911-.047-10.31-.136-16.203-.1-6.305-.975-12.228-2.672-17.727-1.747-5.67-4.62-10.664-8.571-14.716-2.268-2.334-5.096-4.068-8.233-5.156-3.143-1.095-6.587-1.581-10.298-1.581-9.294-.025-17.852 2.707-24.975 8.102-6.813 5.135-12.672 11.76-17.574 19.736-4.86 7.911-8.823 16.804-11.917 26.649a252.222 252.222 0 0 0-7.334 29.336c-1.837 9.825-3.129 19.264-3.865 28.315-.732 8.952-1.101 16.575-1.102 22.918 0 6.574.467 13.353 1.402 20.343.967 7.265 2.922 14.044 5.883 20.26 3.042 6.407 7.426 11.802 12.997 15.919 6.003 4.452 13.65 6.46 22.366 6.451 11.211.001 22.634-2.911 34.143-8.526 11.415-5.563 21.852-12.842 31.259-21.78 9.402-8.928 17.197-18.94 23.331-29.982 6.235-11.213 9.475-22.755 9.468-34.392 0-1.382-.56-2.869-1.537-3.847-.978-.977-2.33-1.673-3.713-1.673m454.704-50.999c-4.691-6.748-10.568-12.614-17.534-17.546a86.285 86.285 0 0 0-22.357-11.389c-7.922-2.67-15.386-4.065-22.411-4.065h-2.168l-.747.048a951.88 951.88 0 0 0-9.129 1.36c-3.458.532-6.773.974-9.942 1.325l-.165.02c-3.77.539-7.791 1.078-11.925 1.617-2.609.341-4.637 2.576-4.637 5.206v120.023c-.75-9.754-1.382-19.508-2.189-29.266-1.083-13.086-2.059-26.17-3.049-39.258a620.746 620.746 0 0 1-1.746-38.294 5.254 5.254 0 0 0-1.653-3.75l-4.606-4.336a5.26 5.26 0 0 0-5.681-.996 5.252 5.252 0 0 0-3.129 4.3c-.054.214-.448 1.29-1.147 2.718-.32.669-.611 1.232-.868 1.7a.771.771 0 0 1-.211-.069c-.006-.007-.083-.041-.146-.159-.701-1.359-1.075-2.67-1.075-4.212v-.789c0-.243.186-.492.23-.745l19.658-19.636c1.196.001 3.014.043 5.369.13 4.801.178 10.491.493 17.05.939 6.548.451 13.239.989 20.068 1.616 6.779.627 12.28 1.295 16.423 1.984l.086.013c8.073 1.205 15.42 3.296 22.092 6.248 6.612 2.934 12.2 6.688 16.874 11.276 4.648 4.571 8.257 9.916 10.9 16.178a47.237 47.237 0 0 1 1.637 4.564 42.779 42.779 0 0 0-3.872-6.755m-11.106 75.349c-4.434 7.34-9.547 14.38-15.327 21.135.4-.502.801-.999 1.198-1.508 6.192-7.948 11.703-16.1 16.529-24.447a168.667 168.667 0 0 0 6.78-12.982 146.027 146.027 0 0 1-9.18 17.802m-22.411 13.173c-5.9 7.571-12.036 14.319-18.407 20.252-6.353 5.917-12.586 10.589-18.666 14.048-3.967 2.261-7.59 3.668-10.876 4.357a5.243 5.243 0 0 0-.181-1.114 538.37 538.37 0 0 1-1.741-6.295 340.37 340.37 0 0 0-2.753-9.498c-.986-3.223-1.942-6.254-2.743-9.104-.664-2.357-.881-4.105-1.631-5.359V270.448c3-.339 5.036-.678 7.414-1.018a244.69 244.69 0 0 0 10.319-1.368c3.34-.513 6.253-1.288 8.691-1.288h1.789c5.617 0 11.974 1.126 19.054 3.514a75.714 75.714 0 0 1 19.644 10.011c6.042 4.281 11.005 9.254 14.985 14.973 3.78 5.466 5.546 11.024 5.564 17.19.004 5.342-1.236 11.733-3.89 19.086-2.683 7.438-6.293 15.107-10.853 23.002-4.573 7.911-9.811 15.662-15.719 23.246m-65.298 51.909a573.37 573.37 0 0 0-1.338-33.731c-.223-3.222-.467-6.444-.7-9.666.032.422.097.829.236 1.247.302.905.889 2.882 1.69 5.73a426.987 426.987 0 0 0 2.744 9.328 327.763 327.763 0 0 1 2.665 9.194 729.468 729.468 0 0 0 1.616 5.863l.054.595c.052.522.124 1.144.219 1.896l-.002-.016c.086.702.15 1.16.189 1.548.02.193.033.331.039.331h.004c.002 1.5.562 2.827 1.537 3.802.91.91 2.144 1.502 3.425 1.574-4.194 1.174-8.317 1.956-12.378 2.305m110.728-142.314c-3.144-7.469-7.572-14.049-13.219-19.595-5.626-5.526-12.327-9.994-19.981-13.385-7.584-3.356-15.834-5.689-24.709-7.019l-.077-.012-.007-.002c-4.517-.746-10.19-1.428-17.093-2.068a890.943 890.943 0 0 0-20.313-1.635c-6.639-.452-12.42-.773-17.373-.957-2.481-.091-4.395-.138-5.819-.138-.718.001-1.304.011-1.855.043-.28.017-.547.038-.891.086-.383.087-.693.038-1.833.558a5.043 5.043 0 0 0-1.368.984l-22.222 22.222a5.311 5.311 0 0 0-1.265 2.042c-.24.711-.442 1.458-.523 2.212-.252.864-.38 1.694-.38 2.44v1.084c0 3.157.798 6.276 2.267 9.07.937 1.832 2.5 3.503 4.39 4.52 1.886 1.033 3.985 1.433 5.998 1.433h1.355a6.72 6.72 0 0 0 2.128-.344 6.123 6.123 0 0 0 2.397-1.478c.058-.058.105-.118.16-.176.279 10.154.805 20.44 1.597 30.868a5572.928 5572.928 0 0 0 3.12 39.33 2940.216 2940.216 0 0 1 2.976 39.223 561.28 561.28 0 0 1 1.341 38.525c0 1.383.561 2.735 1.538 3.713a5.288 5.288 0 0 0 3.713 1.537c9.566.002 19.273-1.957 29.018-5.782 9.652-3.785 18.944-8.935 27.859-15.409 8.879-6.451 17.187-13.918 24.913-22.39 7.715-8.461 14.429-17.409 20.126-26.838 5.684-9.413 10.231-19.009 13.611-28.776 3.415-9.861 5.167-19.485 5.167-28.815.001-9.084-1.557-17.489-4.746-25.071M429.367 434.607l-.007-.009-.009-.008.016.017zm-2.974-3.469l-.009-.012-.005-.008.014.02z" fill="#f2377c" fill-rule="nonzero"/><path d="M519.603 406.671c-8.013 2.7-16.523 5.495-25.532 8.375-8.988 2.877-17.424 5.434-25.308 7.673-7.89 2.244-14.723 4.027-20.477 5.355-4.263 1-7.379 1.455-8.61 1.469-.177-.114-.4-.263-.662-.457l-.019-.014a18.04 18.04 0 0 1-2.204-1.89l-.016-.016a18.12 18.12 0 0 1-1.89-2.203l-.014-.019c-.27-.37-.463-.665-.574-.849-.268-1.387-.637-4.016-1.02-7.593-.45-4.131-.9-8.577-1.347-13.341-.452-4.774-.857-9.276-1.215-13.503-.361-4.17-.528-7.083-.524-8.364l-.008-.294c-.174-3.104-.311-8.081-.398-14.815-.093-6.769-.182-14.441-.271-23.02-.094-8.597-.229-17.646-.407-27.144-.182-9.473-.318-18.49-.406-27.055-.093-8.585-.182-16.223-.272-22.915-.049-3.578-.084-6.646-.107-9.232 1.577.253 2.591.591 2.921.831 1.107.706 1.423 1.151 1.773 2.255.288 1.063.483 2.555.482 4.427 0 .802-.035 1.672-.107 2.606-.282 3.687-.42 7.745-.42 12.191 0 3.565.137 8.796.41 15.787.27 6.939.54 14.784.811 23.534.271 8.776.585 18.002.95 27.676.36 9.657.677 18.813.947 27.473.271 8.682.543 16.553.815 23.614.271 7.062.496 12.223.681 15.539a5.246 5.246 0 0 0 5.242 4.956c.089-.008 1.601.078 3.788.255 2.321.184 3.794.282 4.884.288 1.502-.002 3.359-.101 5.705-.288 1.118-.089 1.983-.156 2.577-.201.297-.021.643-.038.791-.048.073-.004.262-.008.262-.009v-.006l.367-.03c1.82-.23 4.636-.78 9.045-1.698 4.356-.906 9.398-1.993 15.195-3.262a1938.6 1938.6 0 0 1 18.361-3.918 1847.99 1847.99 0 0 0 18.473-3.941c2.472-.54 4.801-1.045 7.008-1.519a695.872 695.872 0 0 1-9.68 3.34m37.353-11.811a39.973 39.973 0 0 0-1.605-1.689l-.014-.014c-1.172-1.168-1.941-2.086-2.276-2.425-.986-.999-2.33-1.709-3.733-1.709h-4.335c-.44 0-.855.201-1.281.308-1.266.32-4.159 1.029-8.46 1.924-4.362.911-9.435 2.036-15.227 3.3a1889.13 1889.13 0 0 1-18.379 3.938 1938.008 1938.008 0 0 0-18.477 3.949 1515.362 1515.362 0 0 1-15.125 3.245c-4.037.847-6.857 1.373-8.054 1.534-.066.005-.13.01-.224.015-.596.039-1.694.125-3.396.259-2.184.177-3.849.256-4.871.255-.335.004-1.693-.066-3.661-.223-.13-2.863-.278-6.437-.442-10.717-.271-7.03-.541-14.877-.811-23.539-.273-8.684-.591-17.862-.951-27.538a4158.8 4158.8 0 0 1-.947-27.608c-.271-8.772-.543-16.644-.814-23.619-.27-6.915-.403-12.075-.403-15.377 0-4.226.133-8.027.391-11.386.09-1.177.137-2.312.137-3.411-.002-2.571-.251-4.945-.842-7.159-.924-3.6-3.402-6.771-6.624-8.594-3.727-2.079-7.986-2.561-13.488-2.613-1.382 0-2.735.56-3.712 1.538a5.287 5.287 0 0 0-1.538 3.712c0 3.296.043 8.281.137 14.978.088 6.676.177 14.307.27 22.883.09 8.597.225 17.644.407 27.143.178 9.47.313 18.493.406 27.056.089 8.584.178 16.266.271 23.05.09 6.74.222 11.75.409 15.148.014 1.969.201 4.878.559 9.076.361 4.261.769 8.795 1.224 13.596.45 4.808.906 9.306 1.362 13.489.463 4.251.859 7.185 1.315 9.249l.135.491c.556 1.58 1.23 2.523 2.095 3.751a28.523 28.523 0 0 0 2.975 3.472 28.532 28.532 0 0 0 3.473 2.975c1.228.865 2.171 1.54 3.751 2.095l.505.138c.896.194 1.658.234 2.439.237 2.859-.024 6.283-.64 11.119-1.737 5.985-1.383 12.972-3.207 20.988-5.487 8.01-2.274 16.554-4.866 25.637-7.773a1737.777 1737.777 0 0 0 25.686-8.425c8.088-2.728 15.109-5.231 21.076-7.529 2.981-1.146 5.468-2.151 7.491-3.032 2.033-.889 3.565-1.619 4.84-2.377a5.247 5.247 0 0 0 1.985-6.872c-.585-1.08-.929-1.388-1.393-1.951" fill="#f2377c" fill-rule="nonzero"/><path d="M432.839 437.578a.033.033 0 0 1-.008-.006l-.012-.008.02.014zm-30.574-10.279c-.164 1.089-.486 1.84-1.001 2.554-.097.036-.388.119-.983.119-.165-.006-.132-.014-.162-.022-.024-.013-.143-.07-.388-.363l-.01-.011c-.911-1.104-1.749-2.476-2.483-4.167a39.171 39.171 0 0 1-1.918-5.387l-5.066 1.38 5.065-1.383c-.468-1.707-.78-3.036-.926-3.832-.17-2.789-.347-7.22-.517-13.228a1292.76 1292.76 0 0 0-.817-21.228c-.362-7.83-.675-16.07-.945-24.72-.271-8.676-.542-16.989-.814-24.946-.271-7.961-.417-15.068-.69-21.323a299.256 299.256 0 0 1-.276-13.728v-8.731c0-2.183.348-4.98.78-8.349.201-1.569.339-3.112.54-4.643.142 16.68.441 33.547.972 50.612.724 23.443 2.344 46.529 4.892 69.255a5.237 5.237 0 0 0 1.495 3.125c2.247 2.316 3.097 4.359 3.204 7.114.089 4.027.133 7.83.132 11.397.001 1.551.045 3.383.14 5.52l-.002-.024c.02.458.029.9.029 1.326a26.314 26.314 0 0 1-.251 3.683m10.713-5.456c-.09-2.013-.131-3.702-.13-5.049a537.778 537.778 0 0 0-.137-11.632c-.07-4.739-1.868-9.25-4.956-12.877-2.408-21.889-3.968-44.124-4.665-66.707a2209.806 2209.806 0 0 1-1.082-68.671c0-1.383-.56-2.676-1.538-3.654-.977-.978-2.33-1.479-3.712-1.479h-7.588c-2.52 0-4.678 1.723-5.155 4.197-.92 4.77-1.613 8.844-2.081 12.325-.453 3.352-.909 6.781-1.359 10.319-.46 3.576-.662 6.582-.851 9.066l.11.39v8.943c0 3.222.014 7.91.286 14.184.27 6.213.479 13.29.749 21.225.27 7.946.51 16.249.781 24.916.272 8.694.571 16.986.936 24.875.359 7.834.621 14.852.803 21.048.178 6.263.356 10.855.546 13.862l.004.521c.236 1.417.395 3.055 1.145 5.136v-.008h.053c.613 2.25 1.447 4.53 2.447 6.822 1.065 2.453 2.406 4.698 4.025 6.659 1.017 1.24 2.301 2.335 3.81 3.088a10.828 10.828 0 0 0 4.858 1.129c1.705-.001 3.429-.257 5.084-.951a10.27 10.27 0 0 0 4.271-3.32c1.627-2.154 2.653-4.737 3.027-7.417.241-1.687.356-3.411.356-5.167 0-.588-.013-1.17-.036-1.749l-.001-.024zm-47.014-101.337a182.65 182.65 0 0 1-1.184 3.946 61.908 61.908 0 0 1-1.244 3.612c-.187.486-.356.88-.486 1.153a6.89 6.89 0 0 1-.156.309c-.037.068-.116.083-.116.084-.565.853-.943 1.88-.943 2.905v73.701c0 .075-.076.146-.157.227-.492.493-.869.862-1.151 1.089-.08.064-.127.114-.183.155-.038.011-.07.023-.109.035-.013-.006-.023-.012-.043-.02-.076-.038-.255-.14-.555-.477-1.001-1.132-1.914-2.518-2.72-4.207-.852-1.776-1.434-3.438-1.785-4.994-.415-1.777-.56-3.07-.549-3.451-.003-.213.042-1.13.151-2.411.108-1.297.274-3.03.499-5.173.447-4.327.946-8.967 1.488-13.934.542-4.975 1.038-9.636 1.493-13.979.439-4.28.773-7.054.904-7.806.051-.306.072-.559.072-.869-.002-.819-.057-1.754-.148-3.079l-.002-.017a49.028 49.028 0 0 1-.121-3.544c0-1.475-.05-2.869-.15-4.189l-.002-.02a33.005 33.005 0 0 1-.119-2.159 5.285 5.285 0 0 0-1.537-3.713 5.287 5.287 0 0 0-3.712-1.537c-3.276.006-6.798.458-10.592 1.293 3.883-2.255 7.237-4.551 10.061-6.947 1.789-1.522 3.292-3.129 4.435-4.989 1.134-1.842 1.892-4.026 1.887-6.329 0-11.089-.913-22.216-2.478-33.384-1.503-10.685-2.377-21.503-2.377-32.468v-1.742c.75.583.693 1.179.922 1.792.576 1.571 1.13 3.128 1.539 4.677.387 1.454.545 2.507.535 2.861l.034.429c.184 2.244.556 6.042 1.099 11.475a668.06 668.06 0 0 1 1.483 17.208c.448 6.129.856 11.943 1.219 17.439.361 5.526.633 9.369.821 11.61a5.26 5.26 0 0 0 3.823 4.616c.076.073.162.16.263.27.014.013.021.023.033.037-.041.157-.088.33-.142.515m-75.476 37.14c-5.972 4.319-10.137 7.952-12.561 12.129-.437.775-.842 1.687-.842 2.576v4.607c0 .31.205.707.265 1.012.144.726.598 2.918 1.133 6.311.535 3.385 1.112 7.091 1.65 11.121.536 4.022 1.001 7.728 1.359 11.106.242 2.262.408 4.034.479 5.049-.13.272-.288.611-.483.998a280.958 280.958 0 0 0-2.479 5.101 367.329 367.329 0 0 1-2.801 5.738c-.788 1.58-1.473 2.812-1.986 3.636l-.713.712c-.619-.945-1.253-2.334-1.768-4.212-1.335-4.827-2.136-10.035-2.391-15.646a158.518 158.518 0 0 1-.171-7.249c0-3.11.101-6.092.3-8.951l-5.238-.363 5.238.36c.354-5.187.741-8.568.891-9.732.294-2.344-.785-4.542-3.035-5.459v-.001c0 .003-.401-.195-.828-.585-.841-.756-1.724-1.542-2.557-2.379l-.044-.017a61.652 61.652 0 0 1-2.383-2.495c-.066-.073-.131-.139-.186-.203.435-.237.938-.498 1.518-.771 1.031-.496 1.841-.842 2.334-1.02.243-.089.405-.135.427-.138l-.001-.001a5.231 5.231 0 0 0 4.602-4.252c1.661-9.038 2.988-19.038 3.994-30.007a983.934 983.934 0 0 0 2.453-32.969c.633-11.054 1.13-21.66 1.495-31.819.343-9.615.684-17.899 1.028-24.878l1.545-3.184c.63.574.963 1.054 1.146 1.504.256.639.457 1.491.457 2.657v5.284c0 13.328-.896 26.656-2.584 39.99-1.746 13.767-2.666 27.538-2.666 41.309v4.471c0 2.151-.091 4.434.005 6.848.086 2.282-.005 4.474-.005 6.567v4.336c0 1.858 1.139 3.566 2.738 4.514a5.393 5.393 0 0 0 5.277.093c1.632-.894 4.671-2.276 8.788-3.995-1.133.757-2.314 1.521-3.4 2.297m83.303-44.812a15.405 15.405 0 0 0-1.559-1.474c-.157-2.148-.353-5.008-.587-8.59a2497.86 2497.86 0 0 0-1.223-17.52c-.456-6.182-.954-12.113-1.502-17.586-.541-5.406-.904-9.14-1.075-11.39h-.004c-.054-1.5-.359-3.175-.827-4.996l-.003.037a62.998 62.998 0 0 0-1.773-5.592l-.006-.001a26.425 26.425 0 0 0-3.207-6.074c-1.489-2.115-3.419-3.897-5.732-5.052a5.228 5.228 0 0 0-3.556-.416c-2.067.5-4.167 1.258-5.916 2.827-1.77 1.527-2.986 4.15-2.986 6.486v5.826c0 11.443.907 22.753 2.479 33.928 1.499 10.696 2.314 21.333 2.314 31.924-.004.047.039.258-.316.854-.349.58-1.066 1.456-2.254 2.459-2.623 2.23-6.125 4.588-10.504 6.989-4.444 2.443-9.404 4.857-14.879 7.242a954.996 954.996 0 0 1-16.168 6.872 7150.146 7150.146 0 0 0-14.371 5.966c-.797.334-1.544.651-2.267.96-.023-1.015-.082-2.039-.122-3.086-.09-2.288-.162-4.434-.162-6.441v-4.471c0-13.329.892-26.657 2.583-39.989 1.742-13.767 2.667-27.538 2.667-41.31v-5.284c0-2.264-.379-4.487-1.208-6.557-.887-2.229-2.38-4.157-4.173-5.691-2.048-1.732-4.461-2.894-7.346-3.941a5.257 5.257 0 0 0-6.497 2.652l-4.337 8.942a5.29 5.29 0 0 0-.52 2.027c-.366 7.265-.727 15.959-1.087 26.093a1499.86 1499.86 0 0 1-1.485 31.593 975.281 975.281 0 0 1-2.427 32.612c-.867 9.443-1.973 18.096-3.313 25.948-.664.277-1.363.594-2.132.963-1.237.593-2.31 1.157-3.264 1.735-.957.589-1.787 1.148-2.647 1.995a5.036 5.036 0 0 0-.983 1.364 7.728 7.728 0 0 0-.633 1.786c-.044.111-.211.223-.246.331-.265.805-.452 1.518-.452 2.128v.271c0 .798.208 1.686.507 2.623.051.275.174.56.275.863.135.418.371.864.639 1.299.615 1.291 1.353 2.097 2.181 3.066a71.38 71.38 0 0 0 2.769 2.907 73.232 73.232 0 0 0 2.92 2.77c.052.044.104.243.154.287a569.389 569.389 0 0 0-.528 7.275h.001c-.216 3-.323 6.185-.324 9.518 0 2.512.061 5.01.182 7.65.287 6.311 1.196 12.268 2.759 17.921.849 3.073 2.039 5.783 3.772 8.102 1.717 2.312 4.069 4.166 6.793 5.154a5.263 5.263 0 0 0 5.524-1.221l2.168-2.17 2.168-2.169c.268-.269.451-.492.661-.809.911-1.374 1.839-3.053 2.897-5.163a377.23 377.23 0 0 0 2.887-5.913 294.16 294.16 0 0 1 2.397-4.928c.382-.766.675-1.373.912-1.905a12.6 12.6 0 0 0 .34-.827c.059-.161.119-.335.191-.6.063-.287.178-.585.195-1.454-.012-1.458-.207-3.521-.57-7.052-.37-3.487-.825-7.285-1.372-11.392-.547-4.101-1.262-7.889-1.811-11.372-.472-2.983-.437-4.981-1.187-6.175v-2.559c1.5-1.788 4.501-4.59 8.943-7.719 5.445-3.889 11.711-7.594 18.645-11.106a165.458 165.458 0 0 1 21.182-8.93c4.578-1.568 8.621-2.576 12.031-3.093.004.236.023.457.023.7 0 1.463.051 2.9.155 4.308.062.873.101 1.565.117 1.981-.222 1.507-.505 4.027-.912 7.94-.453 4.324-.946 8.969-1.488 13.927-.542 4.977-1.042 9.635-1.492 13.985-.23 2.187-.401 3.978-.518 5.39-.117 1.43-.184 2.409-.187 3.281.011 1.787.314 3.568.808 5.775.545 2.411 1.41 4.815 2.553 7.199 1.171 2.458 2.61 4.689 4.323 6.627 1.052 1.195 2.338 2.245 3.842 2.974a11.035 11.035 0 0 0 4.834 1.103 8.646 8.646 0 0 0 2.625-.392c.275-.051.558-.116.858-.214a6.182 6.182 0 0 0 1.512-.757c1.425-.821 2.468-1.788 3.731-3.021a32.938 32.938 0 0 0 1.575-1.66c.224-.262.431-.507.697-.891.134-.2.219-.428.414-.827.169-.424.479-.943.479-2.366v-74.272c.75-.627.645-1.283.936-2.025a71.342 71.342 0 0 0 1.5-4.248c.461-1.483.895-2.874 1.27-4.182.405-1.509.717-2.532.756-4.16-.021-1.698-.558-2.893-1.094-3.856-.557-.967-1.191-1.758-1.912-2.546M72.516 274.202c1.992.001 3.436.761 4.335 2.28l9.192 14.563c.273.444.41.925.41 1.444l-.004 9.446c-.04 2.296-1.252 3.445-3.634 3.443l-76.817-.033c-2.383-.037-3.573-1.187-3.573-3.446l.006-12.614c.001-2.259 1.193-3.388 3.576-3.387l52.851.023c2.382-.037 3.576-1.184 3.576-3.443l.003-4.89c0-2.26 1.191-3.39 3.575-3.388l6.504.002zm-.023 52.906c1.992.001 3.437.76 4.335 2.28l9.193 14.563c.273.444.409.925.409 1.444l-.004 9.446c-.04 2.296-1.252 3.444-3.634 3.443l-76.816-.033c-2.384-.038-3.574-1.187-3.573-3.446l.005-12.614c.002-2.259 1.193-3.388 3.576-3.388l52.852.024c2.382-.037 3.574-1.185 3.575-3.444l.002-4.89c.001-2.259 1.193-3.389 3.576-3.387l6.504.002zM8.494 386.724C2.977 391.956.216 399.378.212 408.987c-.004 9.609 2.75 17.031 8.263 22.269 5.512 5.236 12.392 7.857 20.636 7.86 8.447.004 15.398-2.698 20.853-8.106 5.453-5.409 7.757-12.624 6.908-21.648-.078-.625.003-1.054.248-1.288.242-.234.586-.274 1.031-.117 6.301 2.737 14.456 10.104 24.46 22.1 1.001 1.25 1.881 1.759 2.641 1.525.761-.234 1.142-1.192 1.142-2.87l.009-17.989c0-1.68-.49-3.164-1.47-4.454-6.511-8.557-15.251-15.261-26.217-20.109-10.968-4.848-20.827-7.274-29.579-7.278-8.244-.003-15.126 2.61-20.643 7.842m25.382 15.422c1.582 1.759 2.372 4.044 2.371 6.856-.003 6.328-3.13 9.491-9.379 9.489-3.086-.002-5.419-.882-7-2.64-1.582-1.758-2.372-4.044-2.371-6.857.003-6.328 3.129-9.49 9.379-9.488 3.084.001 5.418.881 7 2.64" fill="#f2377c" fill-rule="nonzero"/><path d="M47.265 35.531c-.001 3.79 1.097 6.947 3.296 9.476 2.199 2.526 5.091 3.792 8.678 3.795 3.586.001 6.682-1.22 9.292-3.663 2.609-2.444 3.915-5.499 3.917-9.167.002-3.667-1.157-6.663-3.479-8.987-2.321-2.324-5.276-3.487-8.861-3.488-3.587-.003-6.623 1.054-9.109 3.174-2.488 2.116-3.732 5.07-3.734 8.86M16.46 32.887c-.003 5.297 1.767 9.393 5.311 12.288 3.544 2.894 8.372 4.669 14.483 5.325-3.501-5.218-5.25-10.842-5.247-16.872.005-7.989 2.637-14.649 7.896-19.984 5.259-5.336 12.208-8.001 20.847-7.997 8.638.006 15.585 2.882 20.84 8.631 5.254 5.748 7.878 12.981 7.873 21.703-.003 6.03-1.167 11.265-3.492 15.707-2.325 4.44-5.567 7.922-9.725 10.447-8.071 4.803-18.178 7.203-30.322 7.196-7.824-.003-14.689-.966-20.597-2.883-5.908-1.919-10.572-4.51-13.993-7.77C3.491 51.991.073 43.88.077 34.345c.003-3.994.597-7.824 1.779-11.49 1.183-3.668 2.367-6.438 3.55-8.312 1.181-1.875 2.711-4.033 4.588-6.477l13.443 9.543a141.31 141.31 0 0 0-1.896 2.261c-.776.935-1.817 2.749-3.121 5.439-1.306 2.688-1.959 5.213-1.96 7.578M70.222 85.36l16.259.008-.028 52.322-13.203-.007-19.917-17.492c-1.146 6.846-4.021 12.141-8.627 15.888-4.608 3.746-9.926 5.618-15.956 5.615-8.966-.004-15.995-3.045-21.083-9.118C2.575 126.5.033 118.736.038 109.283c.005-9.455 3.351-19.029 10.04-28.723l15.155 7.832c-5.71 8.065-8.566 15.277-8.569 21.634-.003 3.829.932 6.987 2.807 9.475 1.872 2.486 4.582 3.731 8.127 3.733 3.546.001 6.358-1.424 8.437-4.274 2.08-2.853 3.121-6.804 3.124-11.856.001-2.69-.772-6.48-2.317-11.371l14.059.007 19.307 16.392.014-26.772zm-.039 72.247l16.26.008-.028 52.322-13.203-.006-19.917-17.493c-1.146 6.846-4.022 12.141-8.627 15.888-4.608 3.746-9.927 5.619-15.957 5.616-8.966-.005-15.994-3.046-21.083-9.119C2.537 198.747-.005 190.983 0 181.53c.005-9.455 3.351-19.029 10.039-28.722l15.156 7.831c-5.711 8.066-8.566 15.277-8.57 21.634-.002 3.829.933 6.988 2.807 9.475 1.872 2.487 4.583 3.732 8.128 3.733 3.545.002 6.358-1.423 8.437-4.274 2.08-2.852 3.121-6.803 3.124-11.856.001-2.69-.773-6.479-2.317-11.371l14.059.008 19.306 16.392.014-26.773z" fill="#046bf2" fill-rule="nonzero"/><path d="M72.516 274.202v.188c1.947.006 3.303.725 4.173 2.187l9.196 14.568c.254.414.38.858.38 1.344l-.003 9.446c-.066 2.22-1.127 3.229-3.447 3.256l-76.816-.033c-2.32-.065-3.36-1.074-3.385-3.259l.005-12.614c.028-2.184 1.065-3.172 3.388-3.2l52.851.023c2.446-.01 3.789-1.297 3.764-3.63l.002-4.89c.028-2.186 1.065-3.174 3.388-3.201l6.504.003v-.375l-6.504-.003c-1.219-.001-2.166.288-2.81.897-.644.61-.954 1.518-.953 2.678l-.002 4.89c-.027 2.185-1.07 3.193-3.392 3.256l-52.848-.023c-1.219-.001-2.166.289-2.81.898-.644.61-.953 1.517-.953 2.677l-.006 12.614c-.026 2.333 1.314 3.622 3.757 3.634l76.82.033c2.445.028 3.807-1.26 3.822-3.628l.003-9.449a2.891 2.891 0 0 0-.437-1.542l-9.194-14.565c-.923-1.572-2.456-2.372-4.493-2.367v.187zm-.023 52.906v.187c1.946.007 3.304.726 4.174 2.188l9.196 14.567c.253.415.38.859.38 1.345l-.004 9.446c-.066 2.22-1.127 3.229-3.447 3.255l-76.816-.033c-2.32-.064-3.36-1.074-3.385-3.258l.005-12.614c.028-2.185 1.065-3.172 3.388-3.2l52.852.022c2.446-.009 3.788-1.296 3.763-3.63l.003-4.89c.027-2.185 1.065-3.173 3.387-3.2l6.504.002v-.375l-6.504-.002c-1.219-.001-2.166.287-2.81.897-.644.61-.953 1.517-.953 2.678l-.002 4.89c-.027 2.185-1.069 3.192-3.391 3.256l-52.849-.023c-1.219-.001-2.166.289-2.81.898-.644.609-.953 1.517-.953 2.677l-.006 12.614c-.026 2.333 1.314 3.621 3.758 3.633l76.819.033c2.444.029 3.806-1.259 3.821-3.627l.005-9.449a2.897 2.897 0 0 0-.437-1.543l-9.195-14.565c-.924-1.572-2.455-2.371-4.493-2.367v.188zM8.494 386.724l-.129-.135C2.803 391.86.027 399.343.025 408.987c-.006 9.642 2.764 17.127 8.321 22.404 5.546 5.271 12.482 7.911 20.765 7.913 8.487.005 15.497-2.717 20.985-8.161 4.751-4.708 7.134-10.792 7.136-18.206 0-1.165-.057-2.363-.174-3.593a3.445 3.445 0 0 1-.027-.405c0-.375.088-.607.219-.73a.569.569 0 0 1 .417-.16c.119 0 .26.026.42.084 6.236 2.705 14.387 10.056 24.381 22.044.855 1.064 1.64 1.64 2.416 1.647.145 0 .287-.022.423-.063.902-.293 1.273-1.358 1.276-3.049l.007-17.989c.002-1.717-.503-3.247-1.508-4.568-6.532-8.584-15.299-15.308-26.29-20.166-10.985-4.857-20.868-7.29-29.655-7.295-8.283-.005-15.221 2.628-20.772 7.895l.129.135.129.136c5.484-5.198 12.309-7.792 20.514-7.79 8.717.003 18.552 2.42 29.503 7.261 10.942 4.838 19.653 11.521 26.143 20.052.956 1.258 1.432 2.696 1.432 4.34l-.007 17.989c0 1.666-.392 2.515-1.011 2.691-.102.03-.205.046-.313.046-.568.007-1.298-.47-2.126-1.51-10.017-12.008-18.176-19.391-24.532-22.154a1.615 1.615 0 0 0-.559-.111.949.949 0 0 0-.678.265c-.236.229-.333.574-.333 1 0 .138.01.287.03.447.115 1.212.171 2.398.171 3.55-.006 7.336-2.349 13.301-7.025 17.941-5.42 5.371-12.313 8.053-20.721 8.052-8.205-.005-15.027-2.606-20.506-7.809C3.136 425.923.397 418.562.4 408.987c.006-9.576 2.751-16.935 8.223-22.127l-.129-.136zm25.382 15.422l-.139.125c1.547 1.721 2.323 3.953 2.323 6.731-.031 6.262-3.011 9.276-9.192 9.3-3.052-.003-5.321-.867-6.86-2.577-1.548-1.721-2.323-3.952-2.323-6.731.031-6.262 3.01-9.276 9.191-9.301 3.051.003 5.321.867 6.861 2.578l.139-.125.14-.126c-1.625-1.806-4.022-2.702-7.14-2.702-3.154-.002-5.556.798-7.165 2.426-1.61 1.629-2.4 4.057-2.401 7.25-.003 2.846.802 5.186 2.419 6.982 1.623 1.807 4.02 2.702 7.139 2.702 3.154.002 5.556-.798 7.165-2.426 1.61-1.628 2.4-4.058 2.402-7.25.002-2.847-.803-5.186-2.419-6.982l-.14.126z" fill="#fff" fill-rule="nonzero"/><path d="M783.288 386.624c-.619-9.54-.397-19.838-.397-30.081V.001L747.538 0c-.003 1.57.042 2.999.039 4.321.006-2.034.064-3.475.064-3.446V385.88c0 5.696-.358 11.331.162 16.689.989 10.177 4.491 18.305 9.223 24.555 4.795 6.335 11.605 11.41 19.971 13.966 8.821 2.694 20.416 2.91 32.303 2.91h.212c1.613-9.75 3.412-18.633 5.103-27.891-10.347-.284-19.227-.946-24.646-5.707-5.283-4.639-6.106-14.885-6.681-23.778m290.062-130.641c-12.949-10.237-32.149-15.892-56.128-14.776-25.743 1.2-43.919 10.883-58.253 23.385-.333.292-.767 1.176-1.383.96-1.168-6.912-2.637-13.552-3.827-20.302H926.14V439.5h35.25V298.29c8.999-15.569 25.271-24.837 48.908-25.406 12.478-.299 23.502 1.066 31.949 4.996 8.407 3.912 14.171 10.463 17.887 19.241 7.417 17.514 5.757 43.65 5.756 68.319-.002 24.84.016 50.06.014 74.06h35.735v-70.415c0-23.862 1.166-47.705-2.88-67.818-3.986-19.822-12.164-34.811-25.409-45.284M1176.03 318c6.679-26.25 21.144-43.411 52.299-44.859 31.903-1.483 50 14.109 50.279 44.859H1176.03zm137.551-18.899c-3.218-12.883-8.837-23.222-16.37-31.764-14.737-16.713-37.563-27.604-70.158-26.086-37.44 1.744-60.812 19.234-75.578 43.773-7.416 12.324-12.693 28.073-14.032 45.698-1.499 19.758 1.579 38.119 7.122 51.975 5.522 13.801 13.876 25.94 24.237 35.501 10.578 9.762 23.082 16.857 38.586 21.153 15.285 4.233 35.948 5.601 54 2.975 17.394-2.53 32.195-7.436 45.921-13.82-1.531-9.381-3.211-18.615-4.783-27.957-11.717 5.172-25.705 9.287-41.669 10.737-16.782 1.524-34.012.468-46.665-4.504-25.22-9.91-37.953-32.532-40.82-64.032h141.271c2.603-15 2.122-30.902-1.062-43.649m-472.19-53.747V439.5h36V245.25h-35.564c-.123 0-.436-.047-.436.104" fill="#fff"/></g></svg>