<svg width="1000" height="1000" viewBox="0 0 1000 1000" fill="none" xmlns="http://www.w3.org/2000/svg">
<rect width="1000" height="1000" fill="white"/>
<path d="M184.772 490.395V464.882H112.107V331.169H85.2278V490.395H184.772V490.395ZM214.156 490.395H241.035V331.169H214.156V490.395ZM391.148 356.226L391.376 331.169H285.226V490.395H312.105V424.791H382.72V399.962H312.105V356.226H391.148V356.226ZM422.809 331.169V490.395H537.386V465.11H449.688V422.513H525.997V398.595H449.688V356.454H534.653V331.169H422.809V331.169Z" fill="#046BF2"/>
<path fill-rule="evenodd" clip-rule="evenodd" d="M788.345 437.303C788.345 443.224 783.699 448.026 777.967 448.026H649.299C643.569 448.026 638.923 443.224 638.923 437.303V342.947C638.923 337.025 643.569 332.224 649.299 332.224H777.967C783.699 332.224 788.345 337.025 788.345 342.947V437.303V437.303Z" fill="#F2377C"/>
<path fill-rule="evenodd" clip-rule="evenodd" d="M675.624 447.718C670.085 452.863 664.533 457.994 658.968 463.111C655.36 466.43 649.583 471.691 645.969 475.001C641.503 479.095 639.829 476.799 639.547 476.313C639.055 475.462 638.922 473.632 638.923 468.263V416.771C638.923 413.716 641.017 412.421 643.797 412.421H683.91C685.177 412.421 688.535 411.756 689.593 412.737C692.762 415.675 694.152 422.286 695.101 426.329C695.73 429.009 692.712 430.631 690.917 432.425L675.624 447.718" fill="#F2377C"/>
<path fill-rule="evenodd" clip-rule="evenodd" d="M677.339 377.661C678.55 385.679 687.24 397.95 695.869 406.488C705.479 415.995 719.041 422.45 731.583 424.135C737.333 424.907 740.635 424.177 744.067 421.946C747.89 419.462 750.096 415.532 750.482 413.888C750.841 412.36 751.216 410.487 751.354 408.084C751.354 407.547 750.91 406.802 750.239 406.473C742.53 402.699 742.456 402.664 734.507 398.695C733.878 398.38 733.563 398.376 733.205 398.394C732.784 398.414 732.218 398.522 731.361 399.424C728.129 402.819 728.21 402.895 723.979 407.535C723.864 407.661 723.668 407.729 723.497 407.772C723.261 407.793 722.78 407.64 722.572 407.556C711.115 402.856 701.935 395.836 696.924 384.688C696.776 384.358 696.714 384.269 696.781 383.863C696.864 383.529 697.054 383.406 697.292 383.196C700.236 380.604 700.24 380.579 702.605 378.376C702.888 378.112 703.107 377.686 703.198 377.137C703.277 376.66 703.181 376.166 702.999 375.637C701.523 371.329 696.784 358.524 696.219 357.824C695.976 357.563 695.875 356.745 693.202 356.498C689.169 356.127 688.964 356.333 687.363 356.923C678.598 360.15 676.339 371.04 677.339 377.661" fill="white"/>
<path d="M87.0554 632.61C87.7403 637.754 89.1124 642.487 91.1708 646.808C93.2286 651.129 96.1086 654.662 99.8125 657.405C103.516 660.15 108.384 661.521 114.422 661.521C122.241 661.521 130.298 659.498 138.6 655.45C146.897 651.406 154.476 646.123 161.337 639.606C168.195 633.093 173.853 625.819 178.313 617.794C182.769 609.77 185 601.712 185 593.617H180.885C178.416 600.067 174.986 606.719 170.597 613.576C166.205 620.437 161.131 626.642 155.37 632.198C149.608 637.754 143.297 642.316 136.44 645.882C129.579 649.45 122.376 651.232 114.834 651.232C111.953 651.232 109.655 650.994 107.941 650.512C106.224 650.033 104.784 649.277 103.62 648.248C102.453 647.22 101.356 645.815 100.327 644.03C99.2984 642.249 98.0281 640.053 96.5201 637.446V632.919C96.5201 630.726 96.4852 628.359 96.4176 625.819C96.3501 623.42 96.3159 621.019 96.3151 618.618V613.782C96.3151 610.901 96.5201 606.719 96.9324 601.23C97.3432 595.746 98.0638 589.743 99.0926 583.226C100.121 576.712 101.459 570.056 103.106 563.267C104.751 556.476 106.773 550.303 109.175 544.747C111.574 539.191 114.422 534.665 117.715 531.166C121.007 527.669 124.778 525.92 129.032 525.92C132.597 525.92 135.237 526.711 136.954 528.286C138.667 529.865 139.902 531.784 140.658 534.048C141.41 536.311 141.892 538.816 142.098 541.558C142.304 544.304 142.645 546.805 143.127 549.068C143.606 551.332 144.429 553.254 145.596 554.83C146.76 556.409 148.715 557.196 151.46 557.196C151.46 553.492 151.425 549.412 151.358 544.953C151.287 540.497 150.67 536.381 149.506 532.608C148.339 528.836 146.487 525.646 143.95 523.039C141.41 520.435 137.674 519.13 132.736 519.13C126.424 519.13 120.904 520.914 116.171 524.479C111.438 528.048 107.323 532.678 103.825 538.369C100.327 544.062 97.4465 550.509 95.183 557.711C92.9308 564.866 91.1098 572.149 89.7297 579.522C88.3576 586.863 87.3964 593.894 86.8497 600.613C86.2992 607.336 86.0258 613.03 86.0258 617.692C86.0258 622.495 86.3675 627.466 87.0554 632.61M200.639 628.186C200.362 632.166 200.33 636.417 200.535 640.944C200.742 645.471 201.391 649.724 202.491 653.701C203.587 657.681 205.439 660.15 208.046 661.109L209.692 659.462L211.339 657.817C211.885 656.993 212.538 655.829 213.294 654.318C214.046 652.81 214.766 651.335 215.454 649.895C216.059 648.62 216.676 647.351 217.306 646.088C217.853 644.992 218.129 644.374 218.129 644.236C218.129 643.551 217.991 641.905 217.718 639.298C217.441 636.693 217.1 633.844 216.689 630.758C216.311 627.907 215.9 625.06 215.454 622.219C215.043 619.614 214.766 617.968 214.631 617.28V613.782C215.866 611.589 218.643 608.947 222.964 605.86C227.286 602.774 232.153 599.86 237.574 597.115C242.926 594.401 248.461 592.063 254.138 590.119C259.762 588.2 264.494 587.239 268.336 587.239C268.336 587.65 268.368 588.302 268.439 589.193C268.506 590.087 268.541 591.045 268.541 592.074C268.541 593.103 268.574 594.1 268.645 595.058C268.712 596.019 268.748 596.703 268.748 597.115C268.61 597.938 268.368 599.996 268.027 603.289C267.684 606.58 267.307 610.114 266.896 613.885C266.509 617.417 266.132 620.949 265.764 624.482C265.42 627.775 265.25 629.832 265.25 630.655C265.25 631.478 265.42 632.645 265.764 634.153C266.105 635.664 266.654 637.207 267.41 638.783C268.162 640.362 269.056 641.734 270.085 642.898C271.114 644.065 272.314 644.648 273.686 644.648C274.097 644.648 274.439 644.58 274.715 644.441C274.988 644.441 275.194 644.374 275.332 644.236C275.879 643.963 276.599 643.38 277.493 642.487C278.383 641.596 278.831 641.081 278.831 640.944V583.535C279.103 583.123 279.412 582.473 279.756 581.58C280.13 580.596 280.473 579.601 280.785 578.596C281.126 577.5 281.434 576.471 281.711 575.51C281.984 574.551 282.122 573.863 282.122 573.452C282.122 572.905 281.711 572.185 280.888 571.291C280.065 570.4 279.377 569.954 278.831 569.954C278.692 568.308 278.486 565.395 278.213 561.209C277.936 557.026 277.628 552.601 277.287 547.936C276.966 543.542 276.589 539.152 276.156 534.768C275.744 530.652 275.468 527.772 275.332 526.125C275.332 525.302 275.159 524.242 274.818 522.936C274.468 521.614 274.056 520.31 273.583 519.027C273.096 517.712 272.438 516.467 271.628 515.323C270.806 514.159 269.844 513.301 268.748 512.75C266.414 513.301 265.25 514.365 265.25 515.94V520.365C265.25 528.871 265.831 537.272 266.998 545.57C268.162 553.872 268.748 562.134 268.748 570.365C268.748 572.15 267.616 574.002 265.352 575.921C263.089 577.844 260.209 579.763 256.71 581.683C253.212 583.605 249.335 585.489 245.084 587.341C240.985 589.128 236.869 590.877 232.738 592.589C228.758 594.234 225.125 595.746 221.833 597.115C218.541 598.488 216.139 599.585 214.631 600.407V597.115C214.631 595.469 214.595 593.756 214.528 591.971C214.461 590.291 214.426 588.611 214.425 586.929V583.535C214.425 573.246 215.075 562.958 216.38 552.67C217.679 542.432 218.332 532.124 218.335 521.804V517.792C218.335 516.49 218.129 515.323 217.718 514.294C217.306 513.265 216.618 512.339 215.66 511.516C214.699 510.693 213.258 509.941 211.339 509.253L208.046 516.043C207.77 521.531 207.497 528.116 207.223 535.797C206.931 543.825 206.554 551.851 206.091 559.872C205.614 568.181 204.997 576.481 204.239 584.769C203.484 592.999 202.49 600.478 201.256 607.197C200.706 607.197 199.574 607.61 197.861 608.432C196.144 609.255 195.012 609.943 194.465 610.49C194.333 610.745 194.263 611.027 194.26 611.314C194.121 611.451 194.055 611.658 194.055 611.931V612.136C194.055 612.548 194.121 612.892 194.26 613.165C194.26 613.441 194.328 613.647 194.465 613.782C194.601 614.194 194.98 614.743 195.598 615.428C196.23 616.132 196.881 616.819 197.552 617.486C198.219 618.157 198.906 618.809 199.61 619.441C200.295 620.059 200.844 620.437 201.256 620.573C201.118 621.672 200.912 624.209 200.639 628.186M296.32 651.027C296.756 652.608 297.306 654.155 297.967 655.656C298.651 657.235 299.475 658.608 300.436 659.772C301.394 660.939 302.561 661.521 303.934 661.521C305.715 661.521 307.02 660.974 307.844 659.874C308.667 658.778 309.181 657.508 309.386 656.068C309.592 654.627 309.66 653.119 309.592 651.541C309.529 650.204 309.494 648.866 309.49 647.528C309.49 644.785 309.455 641.869 309.386 638.783C309.316 635.696 308.117 632.989 305.786 630.655C303.863 613.509 302.629 596.086 302.082 578.39C301.537 560.974 301.263 543.55 301.259 526.125H295.497C294.809 529.694 294.295 532.745 293.954 535.283C293.61 537.822 293.266 540.426 292.926 543.101C292.582 545.777 292.34 548.007 292.205 549.788V556.579C292.205 558.914 292.308 562.444 292.514 567.176C292.719 571.908 292.926 577.294 293.131 583.329C293.336 589.366 293.543 595.675 293.749 602.259C293.954 608.844 294.192 615.12 294.468 621.087C294.742 627.054 294.948 632.405 295.086 637.137C295.221 641.869 295.359 645.336 295.497 647.528C295.632 648.352 295.909 649.519 296.32 651.027M326.98 656.068C327.527 656.823 328.144 657.544 328.832 658.228C329.501 658.903 330.223 659.522 330.992 660.08C331.745 660.63 332.33 660.974 332.742 661.109C333.976 661.382 336.822 661.006 341.281 659.977C345.737 658.948 350.984 657.579 357.022 655.862C363.057 654.148 369.503 652.193 376.364 649.997C382.862 647.921 389.344 645.795 395.809 643.619C401.912 641.561 407.194 639.677 411.653 637.961C416.109 636.246 419.026 634.977 420.399 634.153C420.26 633.88 419.746 633.298 418.855 632.405C418.27 631.823 417.687 631.24 417.106 630.655H413.814C412.714 630.932 410.522 631.411 407.229 632.096C403.937 632.784 400.095 633.607 395.706 634.565C391.047 635.583 386.383 636.577 381.714 637.548C377.045 638.521 372.381 639.516 367.722 640.532C363.885 641.375 360.044 642.198 356.199 643.002C352.907 643.69 350.711 644.101 349.614 644.236C349.476 644.236 348.55 644.307 346.837 644.441C345.119 644.58 343.782 644.648 342.824 644.648C342.274 644.648 341.142 644.58 339.429 644.441C337.712 644.307 336.651 644.236 336.239 644.236C336.102 641.767 335.931 637.857 335.725 632.507C335.498 626.541 335.292 620.573 335.108 614.605C334.902 608.021 334.661 601.06 334.387 593.72C334.111 586.383 333.873 579.387 333.667 572.732C333.462 566.08 333.256 560.112 333.05 554.83C332.844 549.551 332.742 545.606 332.742 542.999C332.742 539.706 332.844 536.722 333.05 534.048C333.256 531.373 333.118 529.144 332.639 527.36C332.156 525.579 331.095 524.206 329.449 523.245C327.803 522.286 325.058 521.804 321.218 521.804C321.218 524.273 321.251 528.048 321.321 533.122C321.389 538.198 321.456 543.996 321.527 550.509C321.595 557.026 321.698 563.884 321.835 571.086C321.971 578.287 322.074 585.148 322.144 591.662C322.212 598.179 322.279 604.008 322.35 609.153C322.418 614.297 322.521 618.103 322.659 620.573C322.659 621.807 322.794 624.038 323.07 627.26C323.343 630.485 323.652 633.915 323.996 637.548C324.337 641.185 324.681 644.58 325.025 647.734C325.366 650.892 325.675 653.084 325.951 654.318C326.086 654.731 326.43 655.315 326.98 656.068M444.267 542.999C444.402 552.601 444.85 562.376 445.604 572.321C446.358 582.269 447.147 592.214 447.971 602.156C448.793 612.097 449.547 622.042 450.235 631.992C450.916 641.821 451.259 651.669 451.263 661.521C457.983 661.521 464.844 660.15 471.841 657.405C478.836 654.662 485.591 650.923 492.109 646.191C498.622 641.458 504.728 635.973 510.422 629.729C516.112 623.489 521.05 616.904 525.237 609.976C529.419 603.05 532.747 596.019 535.216 588.885C537.686 581.753 538.92 574.892 538.92 568.308C538.92 561.861 537.82 556.032 535.628 550.818C533.432 545.606 530.381 541.079 526.471 537.237C522.562 533.398 517.897 530.276 512.479 527.875C507.058 525.476 501.127 523.794 494.68 522.833C491.387 522.286 487.134 521.772 481.923 521.289C476.818 520.82 471.707 520.408 466.593 520.056C461.584 519.715 457.23 519.474 453.526 519.335C449.823 519.201 447.833 519.201 447.56 519.335L430.686 536.208C430.551 536.606 430.482 537.023 430.481 537.443C430.342 537.719 430.275 538.06 430.275 538.472V539.295C430.275 541.079 430.686 542.761 431.509 544.336C432.333 545.914 433.773 546.702 435.831 546.702H436.859C437.133 546.702 437.339 546.635 437.477 546.497C438.023 545.95 438.711 544.818 439.535 543.101C440.358 541.387 440.769 540.256 440.769 539.706L444.267 542.999V542.999ZM457.642 532.916C460.796 532.504 463.815 532.093 466.695 531.681C469.165 531.408 471.737 531.064 474.412 530.652C477.087 530.241 479.383 529.9 481.305 529.623H482.951C487.752 529.623 492.998 530.585 498.692 532.504C504.376 534.422 509.748 537.16 514.639 540.632C519.578 544.13 523.692 548.245 526.985 552.978C530.278 557.711 531.924 562.822 531.924 568.308C531.924 572.973 530.86 578.255 528.735 584.152C526.606 590.052 523.761 596.086 520.195 602.259C516.627 608.432 512.547 614.47 507.952 620.367C503.355 626.267 498.554 631.549 493.549 636.211C488.539 640.876 483.569 644.615 478.63 647.425C473.692 650.238 469.094 651.644 464.844 651.644C464.844 651.371 464.773 650.685 464.638 649.586C464.5 648.489 464.433 647.805 464.433 647.528C463.977 645.919 463.531 644.307 463.095 642.693C462.444 640.316 461.758 637.95 461.037 635.594C460.325 633.27 459.639 630.937 458.979 628.598C458.362 626.405 457.916 624.894 457.642 624.071V532.916V532.916Z" fill="#F2377C"/>
<path d="M174.828 615.859C170.567 623.525 165.169 630.467 158.591 636.716C152.013 642.963 144.781 648.001 136.853 651.867C128.989 655.698 121.547 657.532 114.422 657.534C108.964 657.527 105.035 656.312 102.187 654.203C99.0076 651.842 96.5748 648.872 94.7692 645.094C92.9028 641.172 91.6424 636.855 91.0068 632.083L87.0547 632.61L91.0061 632.081C90.3394 627.1 90.0122 622.307 90.0122 617.692C90.0114 613.184 90.2779 607.585 90.8223 600.938C91.3569 594.369 92.2984 587.473 93.6484 580.254C94.9987 573.038 96.781 565.909 98.9856 558.906C100.674 553.532 102.713 548.639 105.084 544.2C102.772 549.718 100.823 555.757 99.2301 562.327C97.5604 569.216 96.2012 575.977 95.1549 582.604C94.1116 589.211 93.4685 595.317 93.0478 600.932C92.6325 606.476 92.5095 610.719 92.5095 613.783V618.618C92.5095 620.919 92.4396 623.358 92.511 625.931C92.5778 628.437 92.5095 630.768 92.5095 632.919V637.446C92.5095 638.142 92.7084 638.838 93.057 639.441C94.5649 642.049 95.8406 644.244 96.8686 646.024C98.057 648.08 99.3918 649.834 100.98 651.238C102.639 652.708 104.665 653.739 106.867 654.351C109.135 654.981 111.729 655.212 114.833 655.218C123.005 655.224 130.889 653.268 138.278 649.418C145.483 645.673 152.114 640.876 158.137 635.068C164.125 629.295 169.399 622.841 173.954 615.726C175.436 613.409 176.847 611.048 178.185 608.646C177.243 611.129 176.121 613.54 174.828 615.859M137.929 523.871C139.285 524.348 140.276 524.986 141.096 525.822C143.166 527.957 144.689 530.544 145.697 533.785C146.736 537.155 147.305 540.888 147.371 545.016C147.396 546.642 147.416 548.216 147.433 549.74C147.269 549.249 147.134 548.749 147.027 548.243C146.588 546.185 146.267 543.859 146.073 541.26C145.846 538.235 145.31 535.405 144.44 532.79C143.491 529.925 141.856 527.374 139.654 525.354C138.908 524.68 138.078 524.105 137.185 523.645C137.443 523.714 137.694 523.789 137.929 523.871M185 589.425H180.885C179.236 589.425 177.752 590.549 177.162 592.089C174.806 598.241 171.506 604.71 167.239 611.377C163.011 617.982 158.138 623.965 152.603 629.303C147.103 634.606 141.111 638.947 134.6 642.332C128.267 645.62 121.747 647.234 114.834 647.239C112.175 647.245 110.172 647.003 109.02 646.671C107.781 646.322 106.924 645.844 106.26 645.26C105.51 644.603 104.636 643.548 103.768 642.038C102.861 640.468 101.621 638.581 100.482 636.375V632.919C100.482 630.683 100.549 628.282 100.481 625.714C100.411 623.208 100.482 620.843 100.482 618.618V613.783C100.482 611.083 100.589 606.96 100.998 601.528C101.399 596.173 102.061 590.275 103.075 583.847C104.118 577.249 105.428 570.697 107.002 564.205C108.601 557.604 110.547 551.645 112.845 546.329C115.103 541.1 117.722 536.979 120.623 533.899C123.376 531.039 125.906 529.945 129.034 529.906C132.058 529.903 133.615 530.602 134.26 531.223C135.479 532.355 136.313 533.642 136.877 535.31C137.511 537.216 137.939 539.396 138.123 541.856C138.339 544.749 138.702 547.424 139.228 549.899C139.8 552.61 140.831 555.097 142.393 557.203C143.41 558.598 144.866 559.676 146.444 560.301C148.027 560.938 149.711 561.181 151.46 561.182C152.51 561.182 153.537 560.757 154.279 560.015C155.024 559.266 155.444 558.253 155.446 557.196C155.446 553.467 155.411 549.367 155.343 544.893C155.267 540.105 154.603 535.608 153.314 531.433C151.988 527.127 149.806 523.336 146.806 520.259C145.084 518.487 142.937 517.17 140.555 516.344C138.169 515.512 135.554 515.143 132.736 515.143C125.679 515.124 119.181 517.199 113.772 521.295C108.599 525.194 104.15 530.225 100.428 536.281C96.7381 542.288 93.7289 549.04 91.3797 556.515C89.0796 563.822 87.22 571.261 85.8109 578.79C84.4161 586.25 83.4351 593.418 82.8762 600.29C82.3204 607.087 82.0402 612.875 82.0395 617.692C82.0395 622.683 82.3941 627.831 83.104 633.138C83.8383 638.654 85.3227 643.802 87.571 648.522C89.8808 653.386 93.2096 657.483 97.4396 660.609C101.998 663.989 107.804 665.514 114.422 665.507C122.935 665.508 131.608 663.297 140.347 659.033C149.014 654.809 156.939 649.282 164.082 642.496C171.221 635.717 177.14 628.115 181.797 619.73C186.532 611.216 188.992 602.452 188.986 593.616C188.986 592.567 188.561 591.438 187.819 590.695C187.077 589.954 186.05 589.425 185 589.425M530.257 550.702C526.695 545.578 522.233 541.124 516.944 537.379C511.737 533.685 506.018 530.771 499.968 528.731C493.953 526.704 488.285 525.645 482.951 525.645H481.305L480.738 525.681C478.426 526.014 476.115 526.358 473.806 526.714C471.181 527.118 468.664 527.453 466.257 527.72L466.132 527.735C463.27 528.144 460.216 528.553 457.077 528.963C455.096 529.222 453.557 530.919 453.557 532.916V624.049C452.987 616.643 452.507 609.237 451.894 601.828C451.072 591.891 450.331 581.957 449.579 572.019C448.838 562.343 448.396 552.646 448.254 542.942C448.246 542.408 448.131 541.88 447.915 541.391C447.699 540.902 447.388 540.461 446.998 540.095L443.501 536.803C442.934 536.27 442.224 535.915 441.457 535.78C440.691 535.646 439.902 535.738 439.188 536.046C438.537 536.33 437.973 536.782 437.556 537.356C437.138 537.93 436.881 538.605 436.812 539.311C436.771 539.474 436.471 540.291 435.941 541.375C435.698 541.883 435.477 542.31 435.282 542.666C435.226 542.656 435.172 542.639 435.121 542.613C435.117 542.608 435.058 542.582 435.011 542.493C434.478 541.461 434.194 540.465 434.194 539.295V538.695C434.194 538.511 434.336 538.322 434.369 538.13L449.295 523.22C450.203 523.221 451.584 523.253 453.372 523.319C457.017 523.454 461.338 523.693 466.318 524.032C471.29 524.374 476.37 524.783 481.556 525.259C486.703 525.735 490.88 526.242 494.026 526.765L494.091 526.775C500.221 527.69 505.799 529.278 510.866 531.519C515.886 533.747 520.129 536.597 523.678 540.081C527.207 543.552 529.948 547.61 531.954 552.365C532.428 553.498 532.843 554.655 533.197 555.831C532.375 554.035 531.391 552.318 530.257 550.702M521.825 607.914C518.458 613.487 514.576 618.833 510.187 623.962C510.49 623.581 510.795 623.203 511.096 622.817C515.798 616.782 519.982 610.592 523.647 604.254C525.505 601.045 527.222 597.756 528.795 594.397C526.784 599.057 524.455 603.573 521.825 607.914M504.808 617.916C500.328 623.665 495.669 628.789 490.831 633.294C486.008 637.787 481.275 641.334 476.658 643.96C473.646 645.677 470.895 646.746 468.4 647.269C468.385 646.983 468.339 646.699 468.263 646.423C467.812 644.832 467.372 643.239 466.941 641.643C466.279 639.229 465.582 636.825 464.85 634.431C464.102 631.984 463.376 629.683 462.768 627.519C462.263 625.729 462.099 624.402 461.529 623.449V536.407C463.807 536.15 465.353 535.892 467.159 535.634C469.777 535.343 472.39 534.997 474.994 534.595C477.53 534.206 479.742 533.617 481.593 533.617H482.951C487.216 533.617 492.043 534.472 497.419 536.285C502.735 538.078 507.76 540.639 512.335 543.887C516.922 547.137 520.691 550.913 523.713 555.256C526.583 559.406 527.924 563.626 527.938 568.308C527.941 572.364 526.999 577.217 524.984 582.8C522.947 588.448 520.206 594.271 516.743 600.266C513.271 606.273 509.294 612.158 504.808 617.916M455.227 657.331C455.14 648.786 454.801 640.244 454.211 631.719C454.042 629.273 453.856 626.826 453.68 624.38C453.704 624.7 453.753 625.009 453.859 625.326C454.088 626.014 454.534 627.515 455.142 629.677C455.81 632.046 456.504 634.407 457.225 636.76C457.934 639.077 458.609 641.404 459.249 643.741C459.652 645.227 460.061 646.711 460.476 648.193L460.517 648.645C460.557 649.041 460.611 649.513 460.683 650.084L460.682 650.072C460.747 650.605 460.796 650.953 460.825 651.247C460.841 651.394 460.85 651.499 460.855 651.499H460.858C460.86 652.638 461.285 653.645 462.025 654.386C462.716 655.077 463.653 655.526 464.626 655.581C461.441 656.472 458.311 657.066 455.227 657.331M539.303 549.272C536.916 543.601 533.553 538.604 529.266 534.393C524.994 530.197 519.906 526.805 514.094 524.23C508.336 521.682 502.071 519.91 495.333 518.9L495.274 518.891L495.269 518.89C491.839 518.323 487.531 517.806 482.29 517.32C477.154 516.847 472.012 516.433 466.866 516.078C461.825 515.735 457.436 515.491 453.675 515.351C451.791 515.282 450.338 515.247 449.257 515.247C448.711 515.247 448.266 515.255 447.848 515.279C447.635 515.292 447.433 515.308 447.172 515.345C446.881 515.411 446.645 515.374 445.78 515.768C445.394 515.957 445.043 516.21 444.741 516.516L427.868 533.389C427.433 533.825 427.105 534.356 426.907 534.939C426.725 535.479 426.572 536.046 426.51 536.619C426.319 537.275 426.222 537.905 426.222 538.471V539.295C426.222 541.692 426.828 544.06 427.943 546.181C428.655 547.572 429.841 548.841 431.276 549.613C432.708 550.398 434.302 550.702 435.831 550.702H436.86C437.409 550.702 437.954 550.614 438.475 550.44C439.161 550.213 439.784 549.828 440.295 549.318C440.339 549.274 440.375 549.228 440.417 549.184C440.629 556.894 441.028 564.705 441.629 572.623C442.384 582.58 443.174 592.534 443.998 602.486C444.818 612.408 445.571 622.336 446.258 632.268C446.932 642.004 447.272 651.761 447.276 661.52C447.276 662.57 447.702 663.597 448.444 664.339C449.194 665.084 450.207 665.504 451.263 665.506C458.527 665.508 465.897 664.02 473.297 661.116C480.626 658.242 487.681 654.332 494.45 649.416C501.192 644.518 507.5 638.848 513.367 632.415C519.225 625.991 524.323 619.197 528.648 612.037C532.964 604.89 536.417 597.604 538.983 590.187C541.576 582.7 542.907 575.392 542.907 568.308C542.907 561.411 541.724 555.029 539.303 549.272M326.019 661.053L326.014 661.046L326.007 661.04L326.019 661.053ZM323.761 658.419L323.754 658.41L323.75 658.404L323.761 658.419Z" fill="#F2377C"/>
<path d="M394.535 639.841C388.451 641.891 381.989 644.014 375.149 646.2C368.324 648.385 361.919 650.326 355.932 652.026C349.942 653.73 344.753 655.084 340.384 656.092C337.147 656.852 334.781 657.197 333.847 657.208C333.712 657.121 333.543 657.008 333.344 656.861L333.33 656.85C332.734 656.418 332.174 655.938 331.656 655.415L331.644 655.403C331.122 654.885 330.642 654.325 330.209 653.73L330.198 653.716C329.993 653.435 329.847 653.211 329.762 653.071C329.559 652.018 329.279 650.022 328.988 647.306C328.646 644.169 328.305 640.793 327.965 637.176C327.622 633.551 327.314 630.133 327.043 626.923C326.768 623.757 326.642 621.545 326.645 620.572L326.639 620.349C326.507 617.992 326.402 614.213 326.336 609.1C326.266 603.96 326.198 598.135 326.131 591.621C326.059 585.093 325.957 578.222 325.822 571.01C325.683 563.818 325.58 556.971 325.513 550.468C325.443 543.949 325.375 538.149 325.307 533.068C325.27 530.351 325.243 528.022 325.226 526.058C326.423 526.25 327.193 526.507 327.443 526.689C328.284 527.225 328.524 527.563 328.79 528.402C329.008 529.209 329.156 530.342 329.156 531.763C329.156 532.372 329.129 533.032 329.074 533.742C328.86 536.541 328.756 539.622 328.756 542.998C328.756 545.705 328.86 549.677 329.067 554.985C329.272 560.254 329.477 566.211 329.683 572.855C329.888 579.518 330.127 586.524 330.404 593.869C330.677 601.202 330.918 608.154 331.123 614.73C331.329 621.322 331.535 627.298 331.742 632.66C331.948 638.022 332.118 641.941 332.259 644.458C332.315 645.476 332.759 646.433 333.5 647.133C334.24 647.833 335.22 648.222 336.239 648.222C336.307 648.215 337.455 648.281 339.115 648.415C340.878 648.555 341.996 648.629 342.824 648.634C343.964 648.632 345.374 648.557 347.156 648.415C348.005 648.348 348.661 648.297 349.112 648.263C349.338 648.247 349.601 648.234 349.713 648.226C349.768 648.223 349.912 648.22 349.912 648.219V648.215L350.191 648.192C351.573 648.017 353.711 647.6 357.059 646.903C360.366 646.215 364.194 645.389 368.596 644.426C373.238 643.412 377.886 642.42 382.538 641.451C387.218 640.477 391.894 639.48 396.564 638.458C398.441 638.048 400.21 637.665 401.885 637.305C399.442 638.168 396.992 639.014 394.535 639.841M422.898 630.873C422.504 630.434 422.097 630.006 421.679 629.591L421.668 629.58C420.778 628.693 420.194 627.996 419.94 627.739C419.191 626.98 418.171 626.441 417.106 626.441H413.814C413.48 626.441 413.165 626.594 412.841 626.675C411.88 626.918 409.683 627.456 406.418 628.136C403.106 628.827 399.254 629.682 394.856 630.641C390.209 631.661 385.557 632.658 380.901 633.632C376.219 634.608 371.543 635.608 366.871 636.63C363.047 637.471 359.219 638.292 355.387 639.094C352.321 639.737 350.18 640.137 349.271 640.259C349.221 640.263 349.172 640.266 349.101 640.27C348.648 640.3 347.815 640.365 346.522 640.467C344.864 640.601 343.6 640.661 342.824 640.66C342.57 640.663 341.538 640.61 340.044 640.491C339.945 638.317 339.833 635.603 339.708 632.354C339.503 627.016 339.298 621.058 339.093 614.48C338.885 607.887 338.644 600.918 338.371 593.571C338.108 586.584 337.868 579.596 337.652 572.608C337.446 565.947 337.239 559.97 337.033 554.674C336.828 549.424 336.727 545.506 336.727 542.998C336.727 539.79 336.828 536.903 337.024 534.353C337.093 533.459 337.128 532.597 337.128 531.763C337.127 529.811 336.938 528.008 336.489 526.327C335.787 523.594 333.906 521.186 331.459 519.802C328.63 518.223 325.396 517.857 321.218 517.818C320.169 517.818 319.141 518.243 318.399 518.985C317.654 519.735 317.235 520.747 317.232 521.804C317.232 524.307 317.264 528.092 317.336 533.177C317.402 538.246 317.47 544.04 317.541 550.552C317.609 557.08 317.712 563.949 317.85 571.162C317.985 578.352 318.087 585.203 318.158 591.705C318.226 598.223 318.293 604.056 318.364 609.207C318.432 614.325 318.532 618.129 318.674 620.709C318.685 622.204 318.827 624.413 319.099 627.6C319.373 630.836 319.683 634.279 320.028 637.924C320.37 641.575 320.716 644.99 321.062 648.166C321.414 651.394 321.715 653.622 322.061 655.189L322.163 655.562C322.585 656.761 323.097 657.477 323.754 658.41C324.435 659.348 325.191 660.229 326.013 661.046C326.83 661.868 327.712 662.624 328.65 663.305C329.582 663.962 330.298 664.474 331.498 664.896L331.882 665.001C332.562 665.148 333.141 665.178 333.734 665.181C335.904 665.162 338.504 664.695 342.176 663.862C346.721 662.812 352.026 661.427 358.112 659.695C364.194 657.969 370.682 656.001 377.579 653.793C384.096 651.712 390.598 649.579 397.082 647.396C403.223 645.325 408.554 643.424 413.085 641.679C415.349 640.809 417.237 640.046 418.773 639.377C420.317 638.702 421.48 638.148 422.448 637.572C423.313 637.055 423.949 636.228 424.229 635.26C424.508 634.292 424.411 633.254 423.955 632.354C423.511 631.534 423.25 631.301 422.898 630.873" fill="#F2377C"/>
<path d="M328.655 663.309C328.653 663.308 328.651 663.306 328.649 663.304L328.64 663.298L328.655 663.309V663.309ZM305.44 655.504C305.316 656.331 305.071 656.901 304.68 657.443C304.607 657.471 304.386 657.534 303.934 657.534C303.809 657.529 303.834 657.523 303.811 657.517C303.793 657.507 303.702 657.464 303.516 657.241L303.509 657.233C302.817 656.395 302.181 655.353 301.623 654.069C301.039 652.743 300.552 651.376 300.167 649.979L296.32 651.027L300.166 649.976C299.811 648.68 299.574 647.671 299.463 647.067C299.334 644.949 299.2 641.585 299.071 637.023C298.908 631.648 298.701 626.275 298.45 620.904C298.175 614.959 297.938 608.702 297.733 602.134C297.527 595.547 297.321 589.235 297.115 583.193C296.909 577.148 296.798 571.752 296.591 567.002C296.441 563.53 296.371 560.054 296.381 556.579V549.949C296.381 548.292 296.645 546.168 296.973 543.61C297.126 542.418 297.231 541.247 297.383 540.084C297.491 552.749 297.718 565.557 298.121 578.514C298.671 596.314 299.901 613.844 301.836 631.099C301.934 631.996 302.335 632.833 302.971 633.472C304.677 635.231 305.323 636.782 305.404 638.874C305.472 641.932 305.505 644.819 305.504 647.528C305.505 648.705 305.538 650.096 305.61 651.719L305.609 651.701C305.624 652.049 305.631 652.384 305.631 652.708C305.633 653.643 305.569 654.578 305.44 655.504M313.575 651.361C313.506 649.833 313.475 648.551 313.476 647.528C313.473 644.583 313.439 641.639 313.372 638.696C313.319 635.097 311.954 631.672 309.609 628.918C307.781 612.298 306.596 595.415 306.067 578.267C305.523 560.892 305.249 543.509 305.245 526.125C305.245 525.075 304.82 524.093 304.077 523.351C303.336 522.608 302.308 522.228 301.259 522.228H295.497C293.584 522.228 291.945 523.536 291.583 525.415C290.885 529.036 290.358 532.13 290.003 534.773C289.659 537.318 289.313 539.922 288.971 542.608C288.622 545.323 288.468 547.606 288.325 549.492L288.409 549.788V556.579C288.409 559.025 288.419 562.585 288.626 567.349C288.831 572.066 288.989 577.44 289.194 583.465C289.399 589.498 289.582 595.803 289.787 602.383C289.994 608.985 290.221 615.281 290.498 621.271C290.771 627.219 290.97 632.548 291.108 637.253C291.243 642.008 291.378 645.495 291.522 647.778L291.525 648.174C291.705 649.25 291.825 650.494 292.395 652.074V652.068H292.435C292.901 653.776 293.534 655.507 294.293 657.248C295.102 659.11 296.12 660.815 297.349 662.304C298.121 663.245 299.096 664.077 300.242 664.648C301.388 665.217 302.651 665.511 303.931 665.506C305.226 665.505 306.535 665.311 307.791 664.784C309.078 664.248 310.198 663.378 311.034 662.263C312.27 660.627 313.049 658.666 313.333 656.631C313.516 655.35 313.603 654.041 313.603 652.708C313.603 652.261 313.593 651.819 313.576 651.38L313.575 651.361V651.361ZM277.877 574.416C277.589 575.418 277.289 576.417 276.978 577.412C276.691 578.336 276.376 579.251 276.033 580.155C275.891 580.524 275.763 580.823 275.664 581.03C275.627 581.11 275.587 581.188 275.546 581.265C275.518 581.317 275.458 581.328 275.458 581.329C275.029 581.976 274.742 582.756 274.742 583.535V639.496C274.742 639.553 274.684 639.607 274.623 639.668C274.249 640.043 273.963 640.323 273.749 640.495C273.688 640.544 273.652 640.582 273.61 640.613C273.581 640.621 273.557 640.63 273.527 640.639C273.517 640.635 273.509 640.63 273.494 640.624C273.437 640.595 273.301 640.518 273.073 640.262C272.313 639.402 271.62 638.35 271.008 637.068C270.361 635.719 269.919 634.457 269.652 633.276C269.337 631.926 269.227 630.945 269.235 630.655C269.233 630.494 269.267 629.797 269.35 628.825C269.432 627.84 269.558 626.524 269.729 624.897C270.068 621.611 270.447 618.088 270.859 614.317C271.27 610.539 271.647 607 271.992 603.702C272.326 600.453 272.579 598.346 272.679 597.775C272.718 597.543 272.733 597.351 272.733 597.115C272.732 596.494 272.69 595.784 272.621 594.778L272.62 594.765C272.557 593.869 272.526 592.971 272.528 592.074C272.528 590.954 272.49 589.895 272.414 588.893L272.412 588.878C272.364 588.332 272.334 587.786 272.322 587.238C272.319 586.182 271.9 585.169 271.155 584.419C270.406 583.674 269.393 583.255 268.336 583.252C265.849 583.257 263.175 583.6 260.294 584.234C263.242 582.522 265.789 580.778 267.933 578.959C269.292 577.803 270.433 576.583 271.301 575.171C272.162 573.772 272.737 572.114 272.733 570.365C272.733 561.945 272.04 553.497 270.852 545.017C269.711 536.904 269.047 528.689 269.047 520.364V519.041C269.617 519.484 269.573 519.936 269.747 520.402C270.185 521.595 270.605 522.777 270.916 523.953C271.21 525.057 271.33 525.857 271.322 526.125L271.348 526.451C271.487 528.155 271.77 531.039 272.182 535.164C272.614 539.514 272.989 543.87 273.308 548.23C273.648 552.884 273.958 557.298 274.234 561.472C274.508 565.667 274.715 568.585 274.857 570.287C274.927 571.097 275.242 571.867 275.761 572.493C276.279 573.12 276.977 573.573 277.76 573.792C277.818 573.847 277.883 573.913 277.96 573.997C277.97 574.007 277.976 574.014 277.985 574.025C277.954 574.144 277.918 574.276 277.877 574.416ZM220.568 602.617C216.033 605.896 212.871 608.655 211.03 611.826C210.699 612.415 210.391 613.107 210.391 613.782V617.28C210.391 617.516 210.547 617.817 210.592 618.049C210.702 618.6 211.046 620.264 211.453 622.841C211.859 625.411 212.297 628.225 212.705 631.285C213.112 634.339 213.465 637.153 213.737 639.718C213.921 641.435 214.047 642.781 214.101 643.551C214.002 643.758 213.882 644.015 213.734 644.309C213.094 645.594 212.466 646.885 211.852 648.182C211.156 649.641 210.447 651.093 209.725 652.539C209.127 653.739 208.607 654.674 208.217 655.3L207.676 655.841C207.206 655.123 206.724 654.068 206.333 652.642C205.32 648.977 204.711 645.023 204.518 640.762C204.433 638.929 204.389 637.094 204.388 635.258C204.388 632.897 204.465 630.633 204.616 628.462L200.639 628.186L204.616 628.459C204.885 624.521 205.178 621.954 205.292 621.07C205.516 619.29 204.696 617.621 202.988 616.925V616.924C202.988 616.926 202.683 616.776 202.359 616.48C201.721 615.906 201.05 615.309 200.418 614.674L200.384 614.661C199.764 614.046 199.16 613.414 198.575 612.766C198.525 612.711 198.475 612.661 198.434 612.612C198.764 612.432 199.146 612.234 199.586 612.027C200.369 611.65 200.984 611.387 201.358 611.252C201.543 611.185 201.666 611.15 201.683 611.147L201.682 611.147C202.535 611.058 203.336 610.695 203.966 610.113C204.596 609.531 205.02 608.761 205.176 607.918C206.437 601.055 207.445 593.462 208.209 585.134C208.97 576.8 209.591 568.455 210.071 560.1C210.552 551.707 210.929 543.654 211.207 535.94C211.467 528.639 211.726 522.349 211.987 517.05L213.16 514.633C213.639 515.068 213.891 515.433 214.03 515.775C214.225 516.26 214.377 516.907 214.377 517.792V521.804C214.377 531.924 213.697 542.044 212.415 552.169C211.09 562.622 210.391 573.078 210.391 583.535V586.929C210.391 588.563 210.322 590.296 210.395 592.129C210.46 593.862 210.391 595.526 210.391 597.115V600.408C210.391 601.819 211.256 603.115 212.47 603.835C213.076 604.189 213.763 604.382 214.464 604.394C215.166 604.407 215.859 604.238 216.477 603.906C217.716 603.227 220.024 602.178 223.15 600.872C222.289 601.447 221.393 602.027 220.568 602.617M283.82 568.591C283.452 568.191 283.056 567.817 282.636 567.472C282.517 565.841 282.368 563.669 282.191 560.949C281.897 556.514 281.587 552.079 281.262 547.646C280.916 542.952 280.538 538.449 280.122 534.293C279.711 530.188 279.435 527.353 279.305 525.645H279.302C279.261 524.506 279.03 523.234 278.674 521.851L278.672 521.879C278.289 520.444 277.84 519.027 277.326 517.633L277.321 517.633C276.714 515.996 275.895 514.445 274.886 513.021C273.756 511.415 272.29 510.062 270.534 509.185C269.699 508.765 268.743 508.653 267.834 508.869C266.264 509.248 264.67 509.824 263.342 511.015C261.998 512.175 261.074 514.166 261.074 515.94V520.364C261.074 529.052 261.763 537.64 262.957 546.125C264.095 554.247 264.714 562.323 264.714 570.365C264.711 570.401 264.743 570.561 264.474 571.014C264.209 571.454 263.664 572.119 262.762 572.881C260.771 574.574 258.112 576.364 254.787 578.188C251.412 580.043 247.646 581.875 243.489 583.686C239.413 585.463 235.321 587.203 231.213 588.904C227.574 590.41 223.936 591.92 220.301 593.434C219.696 593.688 219.128 593.929 218.579 594.163C218.562 593.393 218.517 592.615 218.487 591.82C218.418 590.083 218.364 588.453 218.364 586.929V583.535C218.364 573.414 219.041 563.294 220.325 553.171C221.648 542.718 222.35 532.261 222.35 521.804V517.792C222.35 516.073 222.062 514.385 221.433 512.813C220.759 511.121 219.626 509.657 218.264 508.492C216.709 507.177 214.877 506.295 212.686 505.5C211.76 505.169 210.745 505.191 209.835 505.563C208.924 505.934 208.183 506.629 207.753 507.513L204.46 514.303C204.227 514.785 204.093 515.308 204.065 515.842C203.787 521.358 203.513 527.96 203.24 535.655C202.948 543.654 202.573 551.651 202.112 559.643C201.637 567.907 201.022 576.162 200.27 584.405C199.611 591.576 198.771 598.146 197.754 604.108C197.25 604.318 196.719 604.559 196.135 604.839C195.196 605.289 194.381 605.718 193.657 606.156C192.93 606.604 192.3 607.028 191.647 607.671C191.342 607.972 191.09 608.322 190.901 608.707C190.685 609.138 190.524 609.593 190.42 610.063C190.387 610.147 190.26 610.232 190.233 610.314C190.032 610.926 189.89 611.467 189.89 611.93V612.136C189.89 612.742 190.048 613.416 190.275 614.128C190.314 614.336 190.407 614.553 190.484 614.783C190.586 615.1 190.765 615.439 190.969 615.769C191.436 616.749 191.996 617.361 192.625 618.097C193.305 618.853 194.006 619.589 194.727 620.305C195.447 621.026 196.186 621.727 196.945 622.408C196.984 622.441 197.024 622.592 197.062 622.626C196.916 624.466 196.782 626.307 196.661 628.15H196.661C196.497 630.428 196.416 632.846 196.415 635.377C196.415 637.284 196.462 639.181 196.554 641.185C196.771 645.977 197.462 650.5 198.648 654.793C199.293 657.126 200.197 659.184 201.513 660.945C202.816 662.7 204.602 664.108 206.67 664.858C207.385 665.119 208.16 665.17 208.903 665.006C209.646 664.842 210.327 664.469 210.865 663.931L212.511 662.283L214.157 660.636C214.361 660.432 214.5 660.263 214.659 660.022C215.351 658.979 216.055 657.704 216.859 656.102C217.603 654.612 218.333 653.115 219.051 651.612C219.646 650.359 220.253 649.112 220.871 647.87C221.161 647.289 221.383 646.828 221.563 646.424C221.657 646.218 221.743 646.008 221.822 645.796C221.866 645.674 221.912 645.541 221.967 645.34C222.014 645.122 222.102 644.896 222.115 644.236C222.106 643.129 221.957 641.563 221.682 638.882C221.401 636.234 221.055 633.35 220.64 630.232C220.225 627.118 219.682 624.241 219.265 621.597C218.907 619.332 218.933 617.815 218.364 616.908V614.965C219.503 613.607 221.781 611.48 225.154 609.104C229.289 606.151 234.046 603.338 239.311 600.671C244.509 598.041 249.883 595.775 255.395 593.891C258.871 592.7 261.941 591.935 264.53 591.542C264.533 591.721 264.547 591.889 264.547 592.074C264.547 593.185 264.586 594.276 264.665 595.345C264.712 596.008 264.742 596.533 264.754 596.849C264.585 597.993 264.371 599.907 264.062 602.878C263.718 606.161 263.343 609.688 262.932 613.453C262.52 617.232 262.14 620.768 261.799 624.071C261.624 625.732 261.494 627.092 261.405 628.164C261.317 629.25 261.266 629.993 261.263 630.655C261.272 632.012 261.502 633.364 261.877 635.04C262.291 636.871 262.948 638.696 263.816 640.506C264.705 642.373 265.797 644.067 267.098 645.538C267.897 646.446 268.873 647.243 270.015 647.797C271.159 648.351 272.414 648.637 273.686 648.634C274.361 648.638 275.034 648.538 275.679 648.336C275.888 648.298 276.103 648.248 276.33 648.174C276.738 648.036 277.124 647.842 277.478 647.599C278.56 646.976 279.352 646.241 280.311 645.305C280.724 644.899 281.123 644.479 281.507 644.045C281.677 643.846 281.834 643.66 282.036 643.368C282.138 643.216 282.203 643.043 282.351 642.74C282.479 642.418 282.715 642.024 282.715 640.944V584.549C283.284 584.073 283.204 583.575 283.425 583.011C283.839 581.948 284.219 580.873 284.564 579.786C284.914 578.66 285.244 577.604 285.528 576.61C285.836 575.465 286.073 574.688 286.103 573.452C286.087 572.163 285.679 571.255 285.272 570.524C284.849 569.79 284.367 569.189 283.82 568.591M55.0615 539.257C56.5741 539.258 57.6705 539.835 58.3531 540.989L65.3326 552.046C65.5399 552.383 65.6439 552.749 65.6439 553.143L65.6409 560.315C65.6105 562.058 64.6902 562.931 62.8816 562.929L4.55433 562.904C2.74492 562.876 1.84135 562.003 1.84135 560.288L1.8459 550.71C1.84666 548.995 2.75175 548.137 4.56117 548.138L44.691 548.156C46.4997 548.128 47.4063 547.257 47.4063 545.541L47.4085 541.828C47.4085 540.112 48.3129 539.254 50.123 539.256L55.0615 539.257V539.257ZM55.0441 579.429C56.5566 579.43 57.6538 580.006 58.3356 581.16L65.3159 592.218C65.5232 592.555 65.6265 592.92 65.6265 593.314L65.6234 600.487C65.593 602.23 64.6728 603.102 62.8641 603.101L4.53763 603.076C2.72745 603.047 1.82388 602.175 1.82464 600.459L1.82844 590.882C1.82996 589.166 2.73429 588.309 4.5437 588.309L44.6743 588.327C46.483 588.299 47.388 587.428 47.3888 585.712L47.3903 581.999C47.3911 580.284 48.2962 579.426 50.1056 579.428L55.0441 579.429ZM6.44955 624.696C2.26048 628.668 0.164051 634.304 0.161014 641.6C0.157977 648.896 2.24909 654.532 6.43512 658.509C10.6204 662.484 15.8444 664.475 22.1041 664.477C28.5179 664.48 33.7958 662.428 37.9378 658.322C42.0782 654.215 43.8277 648.737 43.183 641.885C43.1238 641.41 43.1853 641.084 43.3713 640.907C43.5551 640.729 43.8163 640.699 44.1542 640.818C48.9385 642.896 55.1306 648.49 62.7267 657.598C63.4867 658.547 64.1549 658.934 64.732 658.756C65.3098 658.579 65.5991 657.851 65.5991 656.577L65.606 642.918C65.606 641.642 65.2339 640.516 64.4898 639.536C59.546 633.039 52.9097 627.948 44.5832 624.267C36.2552 620.586 28.7692 618.744 22.1238 618.741C15.8641 618.739 10.6386 620.723 6.44955 624.696M25.7221 636.405C26.9234 637.741 27.5232 639.476 27.5224 641.611C27.5202 646.416 25.1458 648.818 20.401 648.816C18.0577 648.815 16.2863 648.147 15.0858 646.812C13.8846 645.477 13.2848 643.741 13.2855 641.605C13.2878 636.8 15.6614 634.399 20.407 634.401C22.7487 634.402 24.5209 635.07 25.7221 636.405" fill="#F2377C"/>
<path d="M35.8884 358.034C35.8876 360.912 36.7213 363.309 38.391 365.229C40.0607 367.147 42.2566 368.109 44.9803 368.111C47.7031 368.112 50.0539 367.185 52.0357 365.33C54.0167 363.474 55.0084 361.154 55.0099 358.369C55.0114 355.585 54.1314 353.31 52.3683 351.545C50.6059 349.781 48.3622 348.898 45.6401 348.897C42.9165 348.895 40.6112 349.697 38.7236 351.307C36.8345 352.914 35.8899 355.156 35.8884 358.034ZM12.4981 356.027C12.4958 360.049 13.8398 363.159 16.5308 365.357C19.2217 367.554 22.8876 368.902 27.5277 369.4C24.8694 365.438 23.5414 361.168 23.5437 356.589C23.5475 350.523 25.5459 345.466 29.5391 341.415C33.5323 337.364 38.8087 335.34 45.3683 335.343C51.9271 335.348 57.202 337.532 61.1921 341.897C65.1815 346.261 67.1739 351.753 67.1701 358.376C67.1678 362.955 66.284 366.929 64.5186 370.302C62.7532 373.674 60.2916 376.317 57.1344 378.235C51.0061 381.882 43.3318 383.704 34.1109 383.699C28.1701 383.696 22.9575 382.965 18.4715 381.51C13.9856 380.052 10.4442 378.085 7.84663 375.61C2.65073 370.532 0.0554346 364.374 0.0584718 357.134C0.0607497 354.101 0.511775 351.193 1.40927 348.409C2.30752 345.624 3.20654 343.521 4.10479 342.098C5.00152 340.674 6.16326 339.036 7.58846 337.18L17.7958 344.426C17.3099 344.993 16.83 345.566 16.3561 346.143C15.7669 346.853 14.9765 348.23 13.9863 350.273C12.9947 352.314 12.4989 354.231 12.4981 356.027M53.3197 395.869L65.6652 395.876L65.6439 435.604L55.6188 435.598L40.4958 422.317C39.6257 427.515 37.4427 431.535 33.9453 434.38C30.4465 437.225 26.4085 438.646 21.8299 438.644C15.022 438.641 9.68489 436.332 5.82157 431.721C1.95521 427.107 0.0250625 421.212 0.028859 414.034C0.0326555 406.855 2.57328 399.585 7.65225 392.225L19.1595 398.172C14.8238 404.295 12.6553 409.772 12.653 414.598C12.6507 417.506 13.3607 419.904 14.7844 421.793C16.2058 423.68 18.2635 424.626 20.9552 424.627C23.6477 424.628 25.7828 423.546 27.3614 421.382C28.9408 419.216 29.7312 416.216 29.7335 412.38C29.7342 410.337 29.1473 407.459 27.9742 403.746L38.6492 403.751L53.309 416.197L53.3197 395.869V395.869ZM53.2901 450.727L65.6363 450.733L65.615 490.461L55.59 490.456L40.467 477.174C39.5968 482.372 37.4131 486.393 33.9165 489.238C30.4176 492.082 26.3789 493.504 21.8003 493.502C14.9924 493.498 9.65604 491.189 5.79196 486.578C1.92635 481.964 -0.00379092 476.069 5.58967e-06 468.891C0.0038021 461.712 2.54442 454.443 7.62263 447.083L19.1306 453.029C14.7942 459.153 12.6264 464.629 12.6234 469.456C12.6219 472.363 13.3318 474.762 14.7548 476.65C16.1762 478.538 18.2346 479.484 20.9264 479.485C23.6181 479.486 25.754 478.404 27.3326 476.239C28.9119 474.074 29.7024 471.074 29.7046 467.237C29.7054 465.194 29.1177 462.317 27.9453 458.603L38.6204 458.609L53.2794 471.056L53.2901 450.727V450.727Z" fill="#046BF2"/>
<path d="M55.0615 539.257V539.4C56.5399 539.405 57.5695 539.951 58.2301 541.061L65.2126 552.122C65.4055 552.436 65.5011 552.774 65.5011 553.143L65.4989 560.315C65.4487 562.001 64.6431 562.767 62.8815 562.787L4.55506 562.762C2.79348 562.713 2.0038 561.947 1.98482 560.288L1.98862 550.71C2.00988 549.052 2.79727 548.301 4.56113 548.28L44.691 548.298C46.5482 548.29 47.568 547.313 47.549 545.541L47.5505 541.828C47.5718 540.168 48.3591 539.418 50.123 539.398L55.0615 539.4V539.115L50.123 539.113C49.1974 539.112 48.4784 539.332 47.9894 539.794C47.5004 540.257 47.265 540.947 47.2658 541.828L47.2642 545.541C47.2437 547.2 46.4518 547.965 44.6887 548.013L4.56113 547.995C3.63554 547.995 2.91648 548.215 2.42749 548.677C1.9385 549.14 1.70388 549.829 1.70388 550.71L1.69932 560.288C1.67958 562.059 2.69705 563.038 4.55202 563.047L62.8815 563.072C64.738 563.093 65.7722 562.115 65.7836 560.317L65.7859 553.143C65.7878 552.729 65.6728 552.323 65.4541 551.972L58.473 540.913C57.7722 539.719 56.6082 539.112 55.0615 539.115V539.257V539.257ZM55.044 579.429V579.571C56.5216 579.576 57.5528 580.122 58.2134 581.232L65.1959 592.293C65.388 592.608 65.4844 592.945 65.4844 593.314L65.4814 600.487C65.4313 602.172 64.6257 602.938 62.8641 602.958L4.53759 602.933C2.77601 602.884 1.98634 602.118 1.96736 600.459L1.97115 590.881C1.99241 589.222 2.77981 588.473 4.54367 588.452L44.6743 588.468C46.5315 588.462 47.5505 587.484 47.5315 585.712L47.5338 581.999C47.5543 580.34 48.3424 579.59 50.1055 579.569L55.044 579.571V579.286L50.1055 579.285C49.18 579.284 48.4609 579.503 47.9719 579.966C47.4829 580.429 47.2483 581.118 47.2483 581.999L47.2468 585.712C47.2263 587.371 46.4351 588.136 44.672 588.184L4.54367 588.167C3.61808 588.166 2.89902 588.386 2.41003 588.849C1.92104 589.311 1.68642 590.001 1.68642 590.881L1.68186 600.459C1.66212 602.231 2.67958 603.209 4.53531 603.218L62.8641 603.243C64.7198 603.265 65.754 602.287 65.7654 600.489L65.7692 593.314C65.771 592.9 65.656 592.494 65.4374 592.143L58.4556 581.083C57.754 579.89 56.5915 579.283 55.044 579.286V579.429V579.429ZM6.44951 624.695L6.35156 624.593C2.12833 628.595 0.0205079 634.277 0.0189893 641.6C0.0144335 648.921 2.1177 654.604 6.33714 658.611C10.5482 662.613 15.8147 664.618 22.104 664.619C28.5482 664.623 33.8709 662.556 38.038 658.423C41.6454 654.848 43.4548 650.228 43.4563 644.599C43.4563 643.714 43.4131 642.805 43.3242 641.871C43.3114 641.769 43.3045 641.666 43.3037 641.563C43.3037 641.279 43.3705 641.102 43.47 641.009C43.5119 640.968 43.5615 640.937 43.6159 640.916C43.6703 640.895 43.7284 640.885 43.7866 640.888C43.877 640.888 43.9841 640.907 44.1055 640.951C48.8406 643.005 55.0296 648.587 62.6181 657.689C63.2673 658.497 63.8633 658.935 64.4525 658.94C64.5626 658.94 64.6705 658.923 64.7737 658.892C65.4586 658.67 65.7403 657.861 65.7426 656.577L65.7479 642.918C65.7494 641.614 65.366 640.452 64.6029 639.449C59.6431 632.932 52.9863 627.826 44.6409 624.137C36.2999 620.449 28.7958 618.602 22.1238 618.598C15.8345 618.594 10.5664 620.594 6.35156 624.593L6.44951 624.695L6.54746 624.799C10.7115 620.852 15.8937 618.882 22.1238 618.884C28.7426 618.886 36.2103 620.721 44.5254 624.397C52.8337 628.071 59.448 633.145 64.3758 639.623C65.1017 640.578 65.4632 641.67 65.4632 642.918L65.4579 656.577C65.4579 657.842 65.1602 658.487 64.6902 658.62C64.6128 658.643 64.5345 658.655 64.4525 658.655C64.0213 658.66 63.467 658.298 62.8383 657.509C55.2323 648.391 49.0372 642.785 44.2111 640.687C44.0757 640.634 43.932 640.606 43.7866 640.603C43.6918 640.601 43.5975 640.618 43.5092 640.652C43.4208 640.687 43.3402 640.738 43.2718 640.804C43.0926 640.978 43.019 641.24 43.019 641.563C43.019 641.668 43.0266 641.781 43.0418 641.903C43.1291 642.823 43.1716 643.724 43.1716 644.598C43.167 650.168 41.388 654.698 37.8375 658.221C33.7221 662.299 28.4882 664.336 22.104 664.335C15.874 664.331 10.694 662.356 6.53379 658.405C2.38118 654.459 0.301449 648.87 0.303727 641.6C0.308283 634.329 2.39257 628.741 6.54746 624.799L6.44951 624.695V624.695ZM25.7221 636.405L25.6166 636.5C26.7912 637.807 27.3804 639.502 27.3804 641.611C27.3569 646.366 25.0942 648.654 20.4009 648.673C18.0835 648.67 16.3607 648.014 15.1921 646.716C14.0167 645.409 13.4283 643.715 13.4283 641.605C13.4518 636.85 15.7137 634.562 20.407 634.543C22.7236 634.545 24.4472 635.201 25.6166 636.5L25.7221 636.405L25.8284 636.31C24.5945 634.938 22.7745 634.258 20.407 634.258C18.0122 634.257 16.1883 634.864 14.9666 636.1C13.7441 637.337 13.1443 639.181 13.1435 641.605C13.1412 643.766 13.7525 645.543 14.9803 646.907C16.2126 648.279 18.0327 648.958 20.4009 648.958C22.7958 648.96 24.6196 648.352 25.8413 647.116C27.0638 645.88 27.6636 644.035 27.6652 641.611C27.6667 639.449 27.0554 637.673 25.8284 636.31L25.7221 636.405V636.405Z" fill="white"/>
<path fill-rule="evenodd" clip-rule="evenodd" d="M594.752 624.62C594.282 617.376 594.45 609.557 594.45 601.779V331.056L567.607 331.055C567.604 332.248 567.639 333.333 567.636 334.336C567.641 332.792 567.685 331.698 567.685 331.72V624.055C567.685 628.38 567.413 632.658 567.808 636.727C568.559 644.454 571.218 650.626 574.811 655.371C578.452 660.181 583.623 664.035 589.975 665.976C596.673 668.021 605.477 668.185 614.503 668.185H614.664C615.888 660.782 617.254 654.037 618.538 647.008C610.682 646.792 603.939 646.289 599.825 642.674C595.813 639.152 595.188 631.372 594.752 624.62M814.996 525.424C805.164 517.651 790.585 513.357 772.378 514.204C752.831 515.115 739.03 522.468 728.147 531.961C727.894 532.182 727.564 532.853 727.096 532.689C726.21 527.441 725.094 522.399 724.191 517.274H703.219V664.768H729.985V557.547C736.818 545.726 749.173 538.689 767.121 538.257C776.595 538.03 784.966 539.066 791.38 542.05C797.763 545.02 802.14 549.995 804.961 556.66C810.593 569.958 809.333 589.803 809.332 608.535C809.33 627.396 809.344 646.545 809.342 664.768H836.476V611.302C836.476 593.184 837.361 575.08 834.289 559.808C831.263 544.757 825.053 533.376 814.996 525.424M892.961 572.513C898.033 552.582 909.016 539.551 932.672 538.452C956.896 537.326 970.637 549.165 970.849 572.513H892.961ZM997.404 558.163C994.96 548.381 990.694 540.531 984.974 534.045C973.784 521.355 956.452 513.085 931.703 514.238C903.275 515.562 885.528 528.842 874.317 547.475C868.686 556.832 864.679 568.79 863.662 582.173C862.524 597.175 864.861 611.117 869.07 621.638C873.263 632.117 879.606 641.334 887.473 648.594C895.505 656.006 904.999 661.393 916.771 664.655C928.377 667.869 944.067 668.908 957.774 666.914C970.981 664.993 982.219 661.268 992.642 656.421C991.479 649.298 990.203 642.286 989.01 635.193C980.113 639.12 969.492 642.244 957.371 643.345C944.628 644.503 931.545 643.701 921.938 639.926C902.788 632.401 893.12 615.224 890.943 591.306H998.21C1000.19 579.916 999.822 567.842 997.404 558.163M638.869 517.353V664.768H666.204V517.274H639.2C639.107 517.274 638.869 517.238 638.869 517.353" fill="white"/>
</svg>
